<svg width="30" height="31" viewBox="0 0 30 31" fill="none" xmlns="http://www.w3.org/2000/svg">
<g id="check-verified-02">
<g id="Icon">
<path d="M22.3765 6.74813C22.6339 7.37067 23.1279 7.8655 23.7501 8.12384L25.9315 9.02747C26.5541 9.28535 27.0487 9.77999 27.3066 10.4026C27.5645 11.0252 27.5645 11.7247 27.3066 12.3473L26.4036 14.5273C26.1457 15.1501 26.1453 15.8503 26.4045 16.4729L27.3058 18.6522C27.4337 18.9606 27.4995 19.2911 27.4996 19.6249C27.4996 19.9587 27.4339 20.2893 27.3062 20.5977C27.1784 20.9061 26.9912 21.1863 26.7551 21.4223C26.519 21.6583 26.2388 21.8455 25.9304 21.9731L23.7504 22.8761C23.1279 23.1335 22.6331 23.6276 22.3748 24.2497L21.4712 26.4313C21.2133 27.0539 20.7187 27.5485 20.0961 27.8064C19.4736 28.0643 18.7741 28.0643 18.1515 27.8064L15.9716 26.9034C15.349 26.6462 14.6498 26.6467 14.0276 26.9049L11.8461 27.8072C11.2239 28.0645 10.525 28.0643 9.90296 27.8066C9.28091 27.5489 8.78657 27.0549 8.52852 26.4329L7.62465 24.2507C7.36725 23.6282 6.87318 23.1334 6.25106 22.875L4.06958 21.9714C3.44729 21.7136 2.95282 21.2193 2.69485 20.5971C2.43689 19.9749 2.43654 19.2757 2.69388 18.6532L3.59683 16.4732C3.85407 15.8506 3.85354 15.1513 3.59537 14.5291L2.69372 12.346C2.56588 12.0376 2.50005 11.7071 2.5 11.3733C2.49995 11.0395 2.56567 10.7089 2.6934 10.4005C2.82114 10.0921 3.00839 9.81194 3.24446 9.57594C3.48053 9.33994 3.76078 9.15277 4.06921 9.02513L6.24912 8.12215C6.87109 7.86496 7.36561 7.3715 7.62413 6.75007L8.52773 4.56851C8.7856 3.94593 9.28022 3.45129 9.90278 3.19341C10.5253 2.93553 11.2248 2.93553 11.8474 3.19341L14.0273 4.09639C14.6499 4.35364 15.3491 4.35312 15.9713 4.09493L18.1537 3.19481C18.7762 2.93707 19.4755 2.93713 20.098 3.19496C20.7204 3.45279 21.215 3.94729 21.4729 4.5697L22.3767 6.75191L22.3765 6.74813Z" fill="#FFCC00"/>
<path d="M11.25 15.5L13.75 18L19.375 12.375M22.3765 6.74813C22.6339 7.37067 23.1279 7.8655 23.7501 8.12384L25.9315 9.02747C26.5541 9.28535 27.0487 9.77999 27.3066 10.4026C27.5645 11.0252 27.5645 11.7247 27.3066 12.3473L26.4036 14.5273C26.1457 15.1501 26.1453 15.8503 26.4045 16.4729L27.3058 18.6522C27.4337 18.9606 27.4995 19.2911 27.4996 19.6249C27.4996 19.9587 27.4339 20.2893 27.3062 20.5977C27.1784 20.9061 26.9912 21.1863 26.7551 21.4223C26.519 21.6583 26.2388 21.8455 25.9304 21.9731L23.7504 22.8761C23.1279 23.1335 22.6331 23.6276 22.3748 24.2497L21.4712 26.4313C21.2133 27.0539 20.7187 27.5485 20.0961 27.8064C19.4736 28.0643 18.7741 28.0643 18.1515 27.8064L15.9716 26.9034C15.349 26.6462 14.6498 26.6467 14.0276 26.9049L11.8461 27.8072C11.2239 28.0645 10.525 28.0643 9.90296 27.8066C9.28091 27.5489 8.78657 27.0549 8.52852 26.4329L7.62465 24.2507C7.36725 23.6282 6.87318 23.1334 6.25106 22.875L4.06958 21.9714C3.44729 21.7136 2.95282 21.2193 2.69485 20.5971C2.43689 19.9749 2.43654 19.2757 2.69388 18.6532L3.59683 16.4732C3.85407 15.8506 3.85354 15.1513 3.59537 14.5291L2.69372 12.346C2.56588 12.0376 2.50005 11.7071 2.5 11.3733C2.49995 11.0395 2.56567 10.7089 2.6934 10.4005C2.82114 10.0921 3.00839 9.81194 3.24446 9.57594C3.48053 9.33994 3.76078 9.15277 4.06921 9.02513L6.24912 8.12215C6.87109 7.86496 7.36561 7.3715 7.62413 6.75007L8.52773 4.56851C8.7856 3.94593 9.28022 3.45129 9.90278 3.19341C10.5253 2.93553 11.2248 2.93553 11.8474 3.19341L14.0273 4.09639C14.6499 4.35364 15.3491 4.35312 15.9713 4.09493L18.1537 3.19481C18.7762 2.93707 19.4755 2.93713 20.098 3.19496C20.7204 3.45279 21.215 3.94729 21.4729 4.5697L22.3767 6.75191L22.3765 6.74813Z" stroke="#213642" stroke-width="2.5" stroke-linecap="round" stroke-linejoin="round"/>
</g>
</g>
</svg>
