<svg width="514" height="258" viewBox="0 0 514 258" fill="none" xmlns="http://www.w3.org/2000/svg">
<rect x="0.428362" y="0.428362" width="512.32" height="257.008" rx="6.42542" fill="white"/>
<rect x="441.622" y="14.7817" width="57.1281" height="22.393" rx="2.69648" fill="#F9FAFB"/>
<path d="M452.161 29.4785H449.848V21.9831H452.263C452.99 21.9831 453.613 22.1332 454.13 22.4333C454.647 22.731 455.044 23.1592 455.319 23.7179C455.595 24.2742 455.733 24.9403 455.733 25.7162C455.733 26.497 455.594 27.1691 455.316 27.7328C455.037 28.2939 454.632 28.7258 454.101 29.0284C453.569 29.3285 452.922 29.4785 452.161 29.4785ZM450.755 28.6733H452.102C452.722 28.6733 453.236 28.5538 453.643 28.3147C454.051 28.0756 454.354 27.7352 454.554 27.2936C454.754 26.852 454.855 26.3262 454.855 25.7162C454.855 25.1111 454.756 24.5902 454.558 24.1534C454.36 23.7142 454.065 23.3775 453.672 23.1433C453.28 22.9066 452.79 22.7883 452.205 22.7883H450.755V28.6733ZM458.793 29.6103C458.436 29.6103 458.113 29.5432 457.823 29.409C457.532 29.2723 457.302 29.0759 457.131 28.8197C456.96 28.5611 456.875 28.2488 456.875 27.8828C456.875 27.5608 456.938 27.2997 457.065 27.0996C457.192 26.8971 457.362 26.7385 457.574 26.6238C457.786 26.5092 458.02 26.4238 458.276 26.3676C458.535 26.3091 458.795 26.2627 459.056 26.2286C459.398 26.1846 459.675 26.1517 459.887 26.1298C460.102 26.1054 460.258 26.0651 460.355 26.009C460.455 25.9529 460.505 25.8553 460.505 25.7162V25.6869C460.505 25.3258 460.407 25.0452 460.209 24.8451C460.014 24.6451 459.717 24.545 459.32 24.545C458.907 24.545 458.584 24.6353 458.35 24.8159C458.115 24.9964 457.951 25.1892 457.856 25.3941L457.036 25.1013C457.182 24.7597 457.377 24.4938 457.621 24.3035C457.868 24.1107 458.136 23.9765 458.427 23.9009C458.719 23.8228 459.007 23.7838 459.29 23.7838C459.471 23.7838 459.678 23.8057 459.912 23.8497C460.149 23.8911 460.377 23.9778 460.597 24.1095C460.819 24.2413 461.003 24.4401 461.149 24.7061C461.296 24.972 461.369 25.3282 461.369 25.7747V29.4785H460.505V28.7173H460.461C460.403 28.8393 460.305 28.9698 460.169 29.1089C460.032 29.2479 459.85 29.3663 459.623 29.4639C459.396 29.5615 459.119 29.6103 458.793 29.6103ZM458.924 28.8344C459.266 28.8344 459.554 28.7673 459.788 28.6331C460.025 28.4989 460.203 28.3257 460.322 28.1134C460.444 27.9011 460.505 27.6779 460.505 27.4436V26.6531C460.469 26.697 460.388 26.7373 460.264 26.7739C460.142 26.808 460 26.8385 459.839 26.8654C459.681 26.8898 459.526 26.9117 459.374 26.9313C459.226 26.9483 459.105 26.963 459.012 26.9752C458.788 27.0045 458.578 27.052 458.383 27.1179C458.19 27.1813 458.034 27.2777 457.914 27.407C457.797 27.5339 457.738 27.7071 457.738 27.9267C457.738 28.2268 457.849 28.4538 458.072 28.6075C458.296 28.7587 458.58 28.8344 458.924 28.8344ZM462.946 29.4785V23.857H463.809V29.4785H462.946ZM463.385 22.9201C463.216 22.9201 463.071 22.8627 462.949 22.748C462.83 22.6334 462.77 22.4955 462.77 22.3345C462.77 22.1735 462.83 22.0356 462.949 21.9209C463.071 21.8062 463.216 21.7489 463.385 21.7489C463.553 21.7489 463.697 21.8062 463.817 21.9209C463.939 22.0356 464 22.1735 464 22.3345C464 22.4955 463.939 22.6334 463.817 22.748C463.697 22.8627 463.553 22.9201 463.385 22.9201ZM466.255 21.9831V29.4785H465.391V21.9831H466.255ZM468.393 31.5866C468.247 31.5866 468.116 31.5744 468.002 31.55C467.887 31.528 467.808 31.5061 467.764 31.4841L467.983 30.7229C468.193 30.7765 468.379 30.7961 468.54 30.7814C468.701 30.7668 468.843 30.6948 468.968 30.5655C469.095 30.4386 469.211 30.2324 469.315 29.947L469.477 29.5078L467.398 23.857H468.335L469.886 28.3366H469.945L471.497 23.857H472.434L470.047 30.2983C469.94 30.5887 469.807 30.829 469.649 31.0193C469.49 31.2121 469.306 31.3548 469.096 31.4475C468.889 31.5402 468.654 31.5866 468.393 31.5866Z" fill="#5A6B74"/>
<path fill-rule="evenodd" clip-rule="evenodd" d="M481.993 23.2816C481.993 22.7852 482.395 22.3828 482.892 22.3828H489.184C489.68 22.3828 490.082 22.7852 490.082 23.2816V29.5734C490.082 30.0698 489.68 30.4722 489.184 30.4722H482.892C482.395 30.4722 481.993 30.0698 481.993 29.5734V23.2816Z" stroke="#213642" stroke-width="0.898826" stroke-linecap="round" stroke-linejoin="round"/>
<path d="M487.835 21.4844V23.282" stroke="#213642" stroke-width="0.898826" stroke-linecap="round" stroke-linejoin="round"/>
<path d="M484.24 21.4844V23.282" stroke="#213642" stroke-width="0.898826" stroke-linecap="round" stroke-linejoin="round"/>
<path d="M481.993 25.0801H490.082" stroke="#213642" stroke-width="0.898826" stroke-linecap="round" stroke-linejoin="round"/>
<rect x="441.622" y="14.7817" width="57.1281" height="22.393" rx="2.69648" stroke="#E6E6E6" stroke-width="0.770422"/>
<path d="M16.3474 27.0469H14.0406L17.5555 16.8651H20.3297L23.8396 27.0469H21.5328L18.9824 19.1918H18.9028L16.3474 27.0469ZM16.2033 23.0447H21.6521V24.7251H16.2033V23.0447ZM28.1202 27.196C27.338 27.196 26.6651 27.0303 26.1017 26.6989C25.5416 26.3641 25.1107 25.9001 24.8091 25.3068C24.5108 24.7135 24.3616 24.0308 24.3616 23.2585C24.3616 22.4763 24.5124 21.7902 24.8141 21.2003C25.119 20.607 25.5515 20.1446 26.1116 19.8132C26.6718 19.4785 27.338 19.3111 28.1102 19.3111C28.7764 19.3111 29.3597 19.4321 29.8602 19.674C30.3607 19.916 30.7568 20.2557 31.0484 20.6932C31.3401 21.1307 31.5008 21.6444 31.5307 22.2344H29.5321C29.4757 21.8532 29.3266 21.5466 29.0847 21.3146C28.846 21.0793 28.5328 20.9616 28.145 20.9616C27.8169 20.9616 27.5302 21.0511 27.2849 21.2301C27.043 21.4058 26.8541 21.6626 26.7182 22.0007C26.5823 22.3388 26.5143 22.7481 26.5143 23.2287C26.5143 23.7159 26.5806 24.1302 26.7132 24.4716C26.8491 24.813 27.0397 25.0732 27.2849 25.2521C27.5302 25.4311 27.8169 25.5206 28.145 25.5206C28.387 25.5206 28.6041 25.4709 28.7963 25.3714C28.9918 25.272 29.1526 25.1278 29.2785 24.9389C29.4078 24.7467 29.4923 24.5163 29.5321 24.2479H31.5307C31.4975 24.8312 31.3384 25.3449 31.0534 25.7891C30.7717 26.2299 30.3822 26.5746 29.8851 26.8232C29.3879 27.0717 28.7996 27.196 28.1202 27.196ZM36.9485 19.4105V21.0014H32.3497V19.4105H36.9485ZM33.3938 17.581H35.5117V24.7003C35.5117 24.8958 35.5415 25.0483 35.6012 25.1577C35.6608 25.2637 35.7437 25.3383 35.8497 25.3814C35.9591 25.4245 36.0851 25.446 36.2276 25.446C36.327 25.446 36.4264 25.4377 36.5259 25.4212C36.6253 25.4013 36.7015 25.3864 36.7546 25.3764L37.0877 26.9524C36.9816 26.9856 36.8325 27.0237 36.6402 27.0668C36.448 27.1132 36.2143 27.1413 35.9392 27.1513C35.4288 27.1712 34.9814 27.1032 34.5969 26.9474C34.2157 26.7917 33.9191 26.5497 33.707 26.2216C33.4949 25.8935 33.3905 25.4792 33.3938 24.9787V17.581ZM38.3281 27.0469V19.4105H40.446V27.0469H38.3281ZM39.392 18.4261C39.0771 18.4261 38.807 18.3217 38.5816 18.1129C38.3596 17.9008 38.2485 17.6473 38.2485 17.3523C38.2485 17.0606 38.3596 16.8104 38.5816 16.6016C38.807 16.3894 39.0771 16.2834 39.392 16.2834C39.7069 16.2834 39.9753 16.3894 40.1974 16.6016C40.4228 16.8104 40.5355 17.0606 40.5355 17.3523C40.5355 17.6473 40.4228 17.9008 40.1974 18.1129C39.9753 18.3217 39.7069 18.4261 39.392 18.4261ZM49.2619 19.4105L46.5921 27.0469H44.2057L41.536 19.4105H43.7732L45.3592 24.8743H45.4387L47.0197 19.4105H49.2619ZM50.3457 27.0469V19.4105H52.4636V27.0469H50.3457ZM51.4096 18.4261C51.0947 18.4261 50.8246 18.3217 50.5992 18.1129C50.3771 17.9008 50.2661 17.6473 50.2661 17.3523C50.2661 17.0606 50.3771 16.8104 50.5992 16.6016C50.8246 16.3894 51.0947 16.2834 51.4096 16.2834C51.7244 16.2834 51.9929 16.3894 52.215 16.6016C52.4404 16.8104 52.553 17.0606 52.553 17.3523C52.553 17.6473 52.4404 17.9008 52.215 18.1129C51.9929 18.3217 51.7244 18.4261 51.4096 18.4261ZM58.2219 19.4105V21.0014H53.6232V19.4105H58.2219ZM54.6672 17.581H56.7851V24.7003C56.7851 24.8958 56.8149 25.0483 56.8746 25.1577C56.9343 25.2637 57.0171 25.3383 57.1232 25.3814C57.2326 25.4245 57.3585 25.446 57.501 25.446C57.6005 25.446 57.6999 25.4377 57.7993 25.4212C57.8987 25.4013 57.975 25.3864 58.028 25.3764L58.3611 26.9524C58.255 26.9856 58.1059 27.0237 57.9137 27.0668C57.7214 27.1132 57.4878 27.1413 57.2127 27.1513C56.7023 27.1712 56.2548 27.1032 55.8703 26.9474C55.4892 26.7917 55.1925 26.5497 54.9804 26.2216C54.7683 25.8935 54.6639 25.4792 54.6672 24.9787V17.581ZM59.6015 27.0469V19.4105H61.7194V27.0469H59.6015ZM60.6654 18.4261C60.3506 18.4261 60.0804 18.3217 59.8551 18.1129C59.633 17.9008 59.522 17.6473 59.522 17.3523C59.522 17.0606 59.633 16.8104 59.8551 16.6016C60.0804 16.3894 60.3506 16.2834 60.6654 16.2834C60.9803 16.2834 61.2488 16.3894 61.4708 16.6016C61.6962 16.8104 61.8089 17.0606 61.8089 17.3523C61.8089 17.6473 61.6962 17.9008 61.4708 18.1129C61.2488 18.3217 60.9803 18.4261 60.6654 18.4261ZM66.8961 27.196C66.1106 27.196 65.4344 27.0369 64.8677 26.7188C64.3042 26.3973 63.87 25.9432 63.5651 25.3565C63.2602 24.7666 63.1077 24.0689 63.1077 23.2635C63.1077 22.478 63.2602 21.7886 63.5651 21.1953C63.87 20.602 64.2993 20.1397 64.8528 19.8082C65.4096 19.4768 66.0625 19.3111 66.8116 19.3111C67.3154 19.3111 67.7843 19.3923 68.2185 19.5547C68.656 19.7138 69.0372 19.9541 69.362 20.2756C69.6901 20.5971 69.9453 21.0014 70.1276 21.4886C70.3099 21.9725 70.4011 22.5393 70.4011 23.1889V23.7706H63.9529V22.4581H68.4074C68.4074 22.1532 68.3412 21.883 68.2086 21.6477C68.076 21.4124 67.8921 21.2285 67.6567 21.0959C67.4247 20.96 67.1546 20.892 66.8464 20.892C66.5249 20.892 66.2398 20.9666 65.9913 21.1158C65.746 21.2616 65.5538 21.4588 65.4146 21.7074C65.2753 21.9527 65.2041 22.2261 65.2008 22.5277V23.7756C65.2008 24.1534 65.2704 24.4799 65.4096 24.755C65.5521 25.0301 65.7526 25.2422 66.0111 25.3913C66.2697 25.5405 66.5762 25.6151 66.9309 25.6151C67.1662 25.6151 67.3816 25.5819 67.5772 25.5156C67.7727 25.4493 67.9401 25.3499 68.0793 25.2173C68.2185 25.0848 68.3246 24.9223 68.3975 24.7301L70.3563 24.8594C70.2569 25.33 70.053 25.741 69.7448 26.0923C69.4399 26.4403 69.0455 26.7121 68.5616 26.9077C68.081 27.0999 67.5258 27.196 66.8961 27.196ZM78.1369 21.5881L76.1979 21.7074C76.1648 21.5417 76.0935 21.3925 75.9842 21.2599C75.8748 21.1241 75.7306 21.0163 75.5516 20.9368C75.376 20.8539 75.1655 20.8125 74.9202 20.8125C74.5921 20.8125 74.3154 20.8821 74.09 21.0213C73.8646 21.1572 73.7519 21.3395 73.7519 21.5682C73.7519 21.7505 73.8248 21.9046 73.9707 22.0305C74.1165 22.1565 74.3667 22.2576 74.7214 22.3338L76.1035 22.6122C76.8459 22.7647 77.3994 23.0099 77.764 23.348C78.1286 23.6861 78.3109 24.1302 78.3109 24.6804C78.3109 25.1809 78.1634 25.62 77.8684 25.9979C77.5767 26.3757 77.1757 26.6707 76.6653 26.8828C76.1582 27.0916 75.5732 27.196 74.9103 27.196C73.8994 27.196 73.094 26.9856 72.4941 26.5646C71.8975 26.1404 71.5478 25.5637 71.4451 24.8345L73.5282 24.7251C73.5912 25.0334 73.7436 25.2687 73.9856 25.4311C74.2275 25.5902 74.5374 25.6697 74.9153 25.6697C75.2865 25.6697 75.5848 25.5985 75.8101 25.456C76.0388 25.3101 76.1548 25.1229 76.1582 24.8942C76.1548 24.7019 76.0736 24.5445 75.9146 24.4219C75.7555 24.2959 75.5102 24.1998 75.1788 24.1335L73.8563 23.87C73.1106 23.7209 72.5554 23.4624 72.1908 23.0945C71.8296 22.7266 71.6489 22.2576 71.6489 21.6875C71.6489 21.197 71.7815 20.7744 72.0467 20.4197C72.3151 20.0651 72.6913 19.7917 73.1752 19.5994C73.6624 19.4072 74.2325 19.3111 74.8854 19.3111C75.8499 19.3111 76.6089 19.5149 77.1624 19.9226C77.7192 20.3303 78.044 20.8854 78.1369 21.5881Z" fill="#5A6B74"/>
<path d="M36.4106 215.052C63.1483 220.02 60.0807 108.19 95.2853 103.885C130.49 99.5796 132.17 142.405 148.213 151.015C164.256 159.625 179.509 186.17 206.247 183.521C232.984 180.872 246.353 154.327 268.634 151.015C290.916 147.703 295.372 125.741 316.317 109.514C337.261 93.2876 356.423 91.3007 382.715 94.6123C409.007 97.9238 416.137 131.406 428.615 132.73C441.092 134.055 452.233 118.089 462.928 114.446C473.623 110.803 476.742 94.6123 499.469 94.6123" stroke="#D7C6FE" stroke-width="1.71345" stroke-linecap="round" stroke-linejoin="round"/>
<path d="M35.1255 158.004C61.8631 153.037 60.0806 182.545 95.2852 186.85C130.49 191.155 140.294 161.02 156.336 152.41C172.379 143.8 179.509 104.565 206.246 107.214C232.984 109.863 246.353 136.408 268.634 139.72C290.916 143.031 295.372 164.994 316.316 181.221C337.261 197.447 356.423 199.434 382.715 196.123C409.007 192.811 416.137 159.329 428.615 158.004C441.092 156.68 452.233 172.646 462.928 176.289C473.623 179.932 476.742 196.123 499.469 196.123" stroke="#E6E6E6" stroke-width="1.71345" stroke-linecap="round" stroke-linejoin="round"/>
<path d="M15.0301 61.7443V61.1648L17.5869 57.1193H18.0074V58.017H17.7233L15.7915 61.0739V61.1193H19.2347V61.7443H15.0301ZM17.7688 62.9375V61.5682V61.2983V57.1193H18.4392V62.9375H17.7688ZM20.9357 61.3466L20.9243 60.517H21.0607L22.9697 58.5739H23.7993L21.7652 60.6307H21.7084L20.9357 61.3466ZM20.3107 62.9375V57.1193H20.9811V62.9375H20.3107ZM23.0834 62.9375L21.3788 60.7784L21.8561 60.3125L23.9357 62.9375H23.0834Z" fill="#858D9D"/>
<path d="M17.1324 114.529C16.7574 114.529 16.4231 114.464 16.1295 114.336C15.8379 114.207 15.6059 114.028 15.4335 113.799C15.2631 113.568 15.1703 113.3 15.1551 112.995H15.871C15.8862 113.182 15.9506 113.344 16.0642 113.48C16.1778 113.615 16.3265 113.719 16.5102 113.793C16.6939 113.867 16.8975 113.904 17.121 113.904C17.371 113.904 17.5926 113.86 17.7858 113.773C17.979 113.686 18.1305 113.565 18.2403 113.409C18.3502 113.254 18.4051 113.074 18.4051 112.87C18.4051 112.656 18.3521 112.467 18.246 112.304C18.14 112.14 17.9847 112.011 17.7801 111.918C17.5756 111.825 17.3256 111.779 17.0301 111.779H16.5642V111.154H17.0301C17.2612 111.154 17.4638 111.112 17.6381 111.029C17.8142 110.945 17.9515 110.828 18.05 110.676C18.1504 110.525 18.2006 110.347 18.2006 110.142C18.2006 109.945 18.157 109.774 18.0699 109.628C17.9828 109.482 17.8597 109.369 17.7006 109.287C17.5434 109.206 17.3578 109.165 17.1438 109.165C16.943 109.165 16.7536 109.202 16.5756 109.276C16.3994 109.348 16.2555 109.453 16.1438 109.591C16.032 109.728 15.9714 109.892 15.9619 110.086H15.2801C15.2915 109.781 15.3833 109.514 15.5557 109.284C15.728 109.053 15.9534 108.873 16.2318 108.745C16.5121 108.616 16.8199 108.551 17.1551 108.551C17.515 108.551 17.8237 108.624 18.0813 108.77C18.3388 108.914 18.5367 109.105 18.675 109.341C18.8133 109.578 18.8824 109.834 18.8824 110.108C18.8824 110.436 18.7962 110.715 18.6239 110.946C18.4534 111.177 18.2214 111.337 17.9278 111.426V111.472C18.2953 111.533 18.5822 111.689 18.7886 111.941C18.9951 112.191 19.0983 112.5 19.0983 112.87C19.0983 113.186 19.0121 113.47 18.8398 113.722C18.6693 113.972 18.4364 114.169 18.1409 114.313C17.8455 114.457 17.5093 114.529 17.1324 114.529ZM20.8966 112.858L20.8852 112.029H21.0216L22.9307 110.086H23.7602L21.7261 112.142H21.6693L20.8966 112.858ZM20.2716 114.449V108.631H20.942V114.449H20.2716ZM23.0443 114.449L21.3398 112.29L21.817 111.824L23.8966 114.449H23.0443Z" fill="#858D9D"/>
<path d="M15.1665 165.961V165.45L17.0869 163.347C17.3123 163.101 17.4979 162.887 17.6438 162.705C17.7896 162.522 17.8975 162.349 17.9676 162.188C18.0396 162.025 18.0756 161.855 18.0756 161.677C18.0756 161.472 18.0263 161.295 17.9278 161.146C17.8313 160.996 17.6987 160.88 17.5301 160.799C17.3616 160.718 17.1722 160.677 16.9619 160.677C16.7385 160.677 16.5434 160.723 16.3767 160.816C16.2119 160.907 16.0841 161.035 15.9932 161.2C15.9042 161.364 15.8597 161.558 15.8597 161.779H15.1892C15.1892 161.438 15.2678 161.139 15.425 160.881C15.5822 160.624 15.7962 160.423 16.067 160.279C16.3398 160.135 16.6456 160.063 16.9847 160.063C17.3256 160.063 17.6277 160.135 17.8909 160.279C18.1542 160.423 18.3606 160.617 18.5102 160.862C18.6599 161.106 18.7347 161.378 18.7347 161.677C18.7347 161.891 18.6958 162.1 18.6182 162.305C18.5424 162.507 18.4099 162.734 18.2205 162.984C18.033 163.232 17.7725 163.535 17.4392 163.893L16.1324 165.29V165.336H18.8369V165.961H15.1665ZM20.6466 164.37L20.6352 163.54H20.7716L22.6807 161.597H23.5102L21.4761 163.654H21.4193L20.6466 164.37ZM20.0216 165.961V160.143H20.692V165.961H20.0216ZM22.7943 165.961L21.0898 163.802L21.567 163.336L23.6466 165.961H22.7943Z" fill="#858D9D"/>
<path d="M17.2119 211.653V217.471H16.5074V212.391H16.4733L15.0528 213.334V212.618L16.5074 211.653H17.2119ZM19.5216 215.88L19.5102 215.05H19.6466L21.5557 213.107H22.3852L20.3511 215.164H20.2943L19.5216 215.88ZM18.8966 217.471V211.653H19.567V217.471H18.8966ZM21.6693 217.471L19.9648 215.312L20.442 214.846L22.5216 217.471H21.6693Z" fill="#858D9D"/>
<line x1="34.6155" y1="61.5184" x2="499.47" y2="61.5184" stroke="#E6E6E6" stroke-width="0.576389"/>
<line x1="34.6155" y1="113.03" x2="499.47" y2="113.03" stroke="#E6E6E6" stroke-width="0.576389"/>
<line x1="34.6155" y1="164.542" x2="499.47" y2="164.542" stroke="#E6E6E6" stroke-width="0.576389"/>
<line x1="34.6155" y1="216.052" x2="499.47" y2="216.052" stroke="#E6E6E6" stroke-width="0.576389"/>
<path d="M34.6155 204.746C55.0616 200.335 71.8748 173.439 96.2708 168.918C109.273 166.509 119.69 171.198 131.312 178.485C142.934 185.772 140.659 188.919 166.797 194.537C188.367 199.173 194.009 149.19 215.146 151.111C236.282 153.031 246.058 92.9371 268.373 97.9535C290.689 102.97 295.147 90.0002 316.124 114.581C337.1 139.161 356.48 81.8657 382.813 76.8493C409.145 71.8328 416.003 125.076 428.5 123.07C440.996 121.063 452.248 159.002 462.959 164.521C473.671 170.039 476.708 149.993 499.47 149.993" stroke="#213642" stroke-width="1.71345" stroke-linecap="round" stroke-linejoin="round"/>
<path d="M96.2708 168.918C71.8748 173.439 55.0616 200.336 34.6155 204.746V215.625H499.47V149.993C476.708 149.993 473.671 170.039 462.959 164.521C452.248 159.003 440.996 121.063 428.5 123.07C416.003 125.076 409.145 71.8328 382.813 76.8493C356.48 81.8657 337.1 139.161 316.124 114.581C295.147 90.0002 290.689 102.97 268.373 97.9535C246.058 92.9371 236.282 153.031 215.146 151.111C194.009 149.19 188.367 199.173 166.797 194.537C140.659 188.919 142.934 185.772 131.312 178.486C119.69 171.199 109.273 166.509 96.2708 168.918Z" fill="url(#paint0_linear_3933_202647)"/>
<path d="M37.2009 233.621H37.9054V237.78C37.9054 238.152 37.8372 238.467 37.7009 238.726C37.5645 238.986 37.3723 239.183 37.1242 239.317C36.8761 239.452 36.5834 239.519 36.2463 239.519C35.9281 239.519 35.645 239.461 35.3969 239.346C35.1488 239.228 34.9537 239.062 34.8117 238.846C34.6696 238.63 34.5986 238.373 34.5986 238.076H35.2918C35.2918 238.241 35.3325 238.385 35.4139 238.508C35.4973 238.629 35.6109 238.724 35.7548 238.792C35.8988 238.86 36.0626 238.894 36.2463 238.894C36.449 238.894 36.6213 238.851 36.7634 238.766C36.9054 238.681 37.0134 238.556 37.0872 238.391C37.163 238.224 37.2009 238.021 37.2009 237.78V233.621ZM40.5105 239.542C40.234 239.542 39.9831 239.49 39.7577 239.385C39.5323 239.279 39.3533 239.127 39.2207 238.928C39.0882 238.727 39.0219 238.485 39.0219 238.201C39.0219 237.951 39.0711 237.748 39.1696 237.593C39.2681 237.436 39.3997 237.313 39.5645 237.224C39.7293 237.135 39.9111 237.068 40.11 237.025C40.3107 236.979 40.5124 236.943 40.7151 236.917C40.9802 236.883 41.1952 236.857 41.36 236.84C41.5266 236.821 41.6478 236.79 41.7236 236.746C41.8012 236.703 41.8401 236.627 41.8401 236.519V236.496C41.8401 236.216 41.7634 235.998 41.61 235.843C41.4584 235.688 41.2283 235.61 40.9196 235.61C40.5995 235.61 40.3486 235.68 40.1668 235.82C39.985 235.96 39.8571 236.11 39.7832 236.269L39.1469 236.042C39.2605 235.777 39.412 235.57 39.6014 235.422C39.7927 235.273 40.0011 235.169 40.2264 235.11C40.4537 235.049 40.6772 235.019 40.8969 235.019C41.037 235.019 41.198 235.036 41.3798 235.07C41.5636 235.102 41.7406 235.17 41.9111 235.272C42.0834 235.374 42.2264 235.528 42.3401 235.735C42.4537 235.941 42.5105 236.218 42.5105 236.564V239.439H41.8401V238.849H41.806C41.7605 238.943 41.6848 239.045 41.5787 239.153C41.4726 239.26 41.3315 239.352 41.1554 239.428C40.9793 239.504 40.7643 239.542 40.5105 239.542ZM40.6128 238.939C40.8779 238.939 41.1014 238.887 41.2832 238.783C41.467 238.679 41.6052 238.545 41.698 238.38C41.7927 238.215 41.8401 238.042 41.8401 237.86V237.246C41.8117 237.28 41.7492 237.312 41.6526 237.34C41.5579 237.367 41.448 237.39 41.323 237.411C41.1999 237.43 41.0796 237.447 40.9622 237.462C40.8467 237.475 40.7529 237.487 40.681 237.496C40.5067 237.519 40.3439 237.556 40.1923 237.607C40.0427 237.656 39.9215 237.731 39.8287 237.831C39.7378 237.93 39.6923 238.064 39.6923 238.235C39.6923 238.468 39.7785 238.644 39.9509 238.763C40.1251 238.881 40.3457 238.939 40.6128 238.939ZM44.4047 236.814V239.439H43.7342V235.076H44.382V235.758H44.4388C44.5411 235.536 44.6964 235.358 44.9047 235.224C45.113 235.087 45.382 235.019 45.7115 235.019C46.007 235.019 46.2655 235.08 46.4871 235.201C46.7087 235.32 46.881 235.502 47.0041 235.746C47.1272 235.989 47.1888 236.296 47.1888 236.667V239.439H46.5183V236.712C46.5183 236.369 46.4293 236.102 46.2513 235.911C46.0733 235.718 45.8289 235.621 45.5183 235.621C45.3043 235.621 45.113 235.668 44.9445 235.76C44.7778 235.853 44.6462 235.989 44.5496 236.167C44.453 236.345 44.4047 236.561 44.4047 236.814Z" fill="#5A6B74"/>
<path d="M84.9457 239.439V233.621H88.4343V234.246H85.6503V236.212H88.173V236.837H85.6503V239.439H84.9457ZM91.0593 239.53C90.6389 239.53 90.2762 239.438 89.9713 239.252C89.6682 239.064 89.4343 238.803 89.2696 238.468C89.1067 238.131 89.0253 237.739 89.0253 237.292C89.0253 236.845 89.1067 236.451 89.2696 236.11C89.4343 235.767 89.6635 235.5 89.9571 235.309C90.2525 235.116 90.5972 235.019 90.9912 235.019C91.2184 235.019 91.4429 235.057 91.6645 235.133C91.8861 235.208 92.0878 235.331 92.2696 235.502C92.4514 235.671 92.5963 235.894 92.7042 236.172C92.8122 236.451 92.8662 236.794 92.8662 237.201V237.485H89.5025V236.905H92.1843C92.1843 236.659 92.1351 236.439 92.0366 236.246C91.94 236.053 91.8018 235.901 91.6218 235.789C91.4438 235.677 91.2336 235.621 90.9912 235.621C90.7241 235.621 90.4931 235.688 90.298 235.82C90.1048 235.951 89.9561 236.121 89.852 236.331C89.7478 236.542 89.6957 236.767 89.6957 237.008V237.394C89.6957 237.724 89.7525 238.003 89.8662 238.232C89.9817 238.459 90.1417 238.633 90.3463 238.752C90.5508 238.869 90.7885 238.928 91.0593 238.928C91.2355 238.928 91.3946 238.903 91.5366 238.854C91.6806 238.803 91.8046 238.727 91.9088 238.627C92.0129 238.525 92.0934 238.398 92.1503 238.246L92.798 238.428C92.7298 238.648 92.6152 238.841 92.4542 239.008C92.2932 239.172 92.0944 239.301 91.8576 239.394C91.6209 239.485 91.3548 239.53 91.0593 239.53ZM93.977 239.439V233.621H94.6474V235.769H94.7042C94.7535 235.693 94.8217 235.597 94.9088 235.479C94.9978 235.36 95.1247 235.254 95.2895 235.161C95.4561 235.066 95.6815 235.019 95.9656 235.019C96.333 235.019 96.6569 235.111 96.9372 235.295C97.2175 235.478 97.4362 235.739 97.5934 236.076C97.7506 236.413 97.8292 236.811 97.8292 237.269C97.8292 237.731 97.7506 238.132 97.5934 238.471C97.4362 238.808 97.2184 239.069 96.94 239.255C96.6616 239.439 96.3406 239.53 95.977 239.53C95.6967 239.53 95.4722 239.484 95.3037 239.391C95.1351 239.296 95.0054 239.189 94.9145 239.07C94.8236 238.949 94.7535 238.849 94.7042 238.769H94.6247V239.439H93.977ZM94.6361 237.258C94.6361 237.587 94.6843 237.878 94.7809 238.13C94.8775 238.38 95.0186 238.576 95.2042 238.718C95.3898 238.858 95.6171 238.928 95.8861 238.928C96.1664 238.928 96.4003 238.854 96.5878 238.706C96.7771 238.557 96.9192 238.356 97.0139 238.104C97.1105 237.85 97.1588 237.568 97.1588 237.258C97.1588 236.951 97.1114 236.674 97.0167 236.428C96.9239 236.18 96.7828 235.984 96.5934 235.84C96.4059 235.694 96.1701 235.621 95.8861 235.621C95.6133 235.621 95.3842 235.69 95.1986 235.829C95.0129 235.965 94.8728 236.156 94.7781 236.403C94.6834 236.647 94.6361 236.932 94.6361 237.258Z" fill="#5A6B74"/>
<path d="M134.763 233.621H135.604L137.581 238.451H137.65L139.627 233.621H140.468V239.439H139.809V235.019H139.752L137.934 239.439H137.297L135.479 235.019H135.422V239.439H134.763V233.621ZM143.074 239.542C142.797 239.542 142.546 239.49 142.321 239.385C142.095 239.279 141.916 239.127 141.784 238.928C141.651 238.727 141.585 238.485 141.585 238.201C141.585 237.951 141.634 237.748 141.733 237.593C141.831 237.436 141.963 237.313 142.128 237.224C142.292 237.135 142.474 237.068 142.673 237.025C142.874 236.979 143.075 236.943 143.278 236.917C143.543 236.883 143.758 236.857 143.923 236.84C144.09 236.821 144.211 236.79 144.287 236.746C144.364 236.703 144.403 236.627 144.403 236.519V236.496C144.403 236.216 144.326 235.998 144.173 235.843C144.022 235.688 143.791 235.61 143.483 235.61C143.163 235.61 142.912 235.68 142.73 235.82C142.548 235.96 142.42 236.11 142.346 236.269L141.71 236.042C141.824 235.777 141.975 235.57 142.165 235.422C142.356 235.273 142.564 235.169 142.79 235.11C143.017 235.049 143.24 235.019 143.46 235.019C143.6 235.019 143.761 235.036 143.943 235.07C144.127 235.102 144.304 235.17 144.474 235.272C144.647 235.374 144.79 235.528 144.903 235.735C145.017 235.941 145.074 236.218 145.074 236.564V239.439H144.403V238.849H144.369C144.324 238.943 144.248 239.045 144.142 239.153C144.036 239.26 143.895 239.352 143.718 239.428C143.542 239.504 143.327 239.542 143.074 239.542ZM143.176 238.939C143.441 238.939 143.665 238.887 143.846 238.783C144.03 238.679 144.168 238.545 144.261 238.38C144.356 238.215 144.403 238.042 144.403 237.86V237.246C144.375 237.28 144.312 237.312 144.216 237.34C144.121 237.367 144.011 237.39 143.886 237.411C143.763 237.43 143.643 237.447 143.525 237.462C143.41 237.475 143.316 237.487 143.244 237.496C143.07 237.519 142.907 237.556 142.755 237.607C142.606 237.656 142.485 237.731 142.392 237.831C142.301 237.93 142.255 238.064 142.255 238.235C142.255 238.468 142.342 238.644 142.514 238.763C142.688 238.881 142.909 238.939 143.176 238.939ZM146.297 239.439V235.076H146.945V235.735H146.991C147.07 235.519 147.214 235.344 147.422 235.209C147.631 235.075 147.866 235.008 148.127 235.008C148.176 235.008 148.238 235.009 148.312 235.01C148.385 235.012 148.441 235.015 148.479 235.019V235.701C148.456 235.695 148.404 235.687 148.323 235.675C148.243 235.662 148.159 235.655 148.07 235.655C147.858 235.655 147.669 235.7 147.502 235.789C147.337 235.876 147.206 235.997 147.11 236.153C147.015 236.306 146.968 236.481 146.968 236.678V239.439H146.297Z" fill="#5A6B74"/>
<path d="M185.364 239.439H184.625L186.762 233.621H187.489L189.625 239.439H188.887L187.148 234.542H187.103L185.364 239.439ZM185.637 237.167H188.614V237.792H185.637V237.167ZM190.441 241.076V235.076H191.088V235.769H191.168C191.217 235.693 191.285 235.597 191.372 235.479C191.461 235.36 191.588 235.254 191.753 235.161C191.92 235.066 192.145 235.019 192.429 235.019C192.797 235.019 193.121 235.111 193.401 235.295C193.681 235.478 193.9 235.739 194.057 236.076C194.214 236.413 194.293 236.811 194.293 237.269C194.293 237.731 194.214 238.132 194.057 238.471C193.9 238.808 193.682 239.069 193.404 239.255C193.125 239.439 192.804 239.53 192.441 239.53C192.16 239.53 191.936 239.484 191.767 239.391C191.599 239.296 191.469 239.189 191.378 239.07C191.287 238.949 191.217 238.849 191.168 238.769H191.111V241.076H190.441ZM191.1 237.258C191.1 237.587 191.148 237.878 191.245 238.13C191.341 238.38 191.482 238.576 191.668 238.718C191.853 238.858 192.081 238.928 192.35 238.928C192.63 238.928 192.864 238.854 193.051 238.706C193.241 238.557 193.383 238.356 193.478 238.104C193.574 237.85 193.622 237.568 193.622 237.258C193.622 236.951 193.575 236.674 193.48 236.428C193.388 236.18 193.246 235.984 193.057 235.84C192.87 235.694 192.634 235.621 192.35 235.621C192.077 235.621 191.848 235.69 191.662 235.829C191.477 235.965 191.336 236.156 191.242 236.403C191.147 236.647 191.1 236.932 191.1 237.258ZM195.316 239.439V235.076H195.963V235.735H196.009C196.088 235.519 196.232 235.344 196.441 235.209C196.649 235.075 196.884 235.008 197.145 235.008C197.194 235.008 197.256 235.009 197.33 235.01C197.404 235.012 197.46 235.015 197.497 235.019V235.701C197.475 235.695 197.423 235.687 197.341 235.675C197.262 235.662 197.177 235.655 197.088 235.655C196.876 235.655 196.687 235.7 196.52 235.789C196.355 235.876 196.225 235.997 196.128 236.153C196.033 236.306 195.986 236.481 195.986 236.678V239.439H195.316Z" fill="#5A6B74"/>
<path d="M233.483 233.621H234.324L236.301 238.451H236.369L238.346 233.621H239.187V239.439H238.528V235.019H238.471L236.653 239.439H236.017L234.199 235.019H234.142V239.439H233.483V233.621ZM241.793 239.542C241.517 239.542 241.266 239.49 241.04 239.385C240.815 239.279 240.636 239.127 240.503 238.928C240.371 238.727 240.304 238.485 240.304 238.201C240.304 237.951 240.354 237.748 240.452 237.593C240.551 237.436 240.682 237.313 240.847 237.224C241.012 237.135 241.194 237.068 241.393 237.025C241.593 236.979 241.795 236.943 241.998 236.917C242.263 236.883 242.478 236.857 242.643 236.84C242.809 236.821 242.93 236.79 243.006 236.746C243.084 236.703 243.123 236.627 243.123 236.519V236.496C243.123 236.216 243.046 235.998 242.893 235.843C242.741 235.688 242.511 235.61 242.202 235.61C241.882 235.61 241.631 235.68 241.449 235.82C241.268 235.96 241.14 236.11 241.066 236.269L240.429 236.042C240.543 235.777 240.695 235.57 240.884 235.422C241.075 235.273 241.284 235.169 241.509 235.11C241.736 235.049 241.96 235.019 242.179 235.019C242.32 235.019 242.481 235.036 242.662 235.07C242.846 235.102 243.023 235.17 243.194 235.272C243.366 235.374 243.509 235.528 243.623 235.735C243.736 235.941 243.793 236.218 243.793 236.564V239.439H243.123V238.849H243.089C243.043 238.943 242.967 239.045 242.861 239.153C242.755 239.26 242.614 239.352 242.438 239.428C242.262 239.504 242.047 239.542 241.793 239.542ZM241.895 238.939C242.161 238.939 242.384 238.887 242.566 238.783C242.75 238.679 242.888 238.545 242.981 238.38C243.075 238.215 243.123 238.042 243.123 237.86V237.246C243.094 237.28 243.032 237.312 242.935 237.34C242.84 237.367 242.731 237.39 242.606 237.411C242.482 237.43 242.362 237.447 242.245 237.462C242.129 237.475 242.036 237.487 241.964 237.496C241.789 237.519 241.626 237.556 241.475 237.607C241.325 237.656 241.204 237.731 241.111 237.831C241.02 237.93 240.975 238.064 240.975 238.235C240.975 238.468 241.061 238.644 241.233 238.763C241.408 238.881 241.628 238.939 241.895 238.939ZM245.292 241.076C245.179 241.076 245.077 241.066 244.988 241.047C244.899 241.03 244.838 241.013 244.804 240.996L244.974 240.405C245.137 240.447 245.281 240.462 245.406 240.451C245.531 240.439 245.642 240.384 245.738 240.283C245.837 240.185 245.927 240.025 246.008 239.803L246.133 239.462L244.52 235.076H245.247L246.451 238.553H246.497L247.701 235.076H248.429L246.576 240.076C246.493 240.301 246.39 240.488 246.267 240.635C246.144 240.785 246.001 240.896 245.838 240.968C245.677 241.04 245.495 241.076 245.292 241.076Z" fill="#5A6B74"/>
<path d="M286.953 233.621H287.658V237.78C287.658 238.152 287.59 238.467 287.453 238.726C287.317 238.986 287.125 239.183 286.877 239.317C286.628 239.452 286.336 239.519 285.999 239.519C285.681 239.519 285.397 239.461 285.149 239.346C284.901 239.228 284.706 239.062 284.564 238.846C284.422 238.63 284.351 238.373 284.351 238.076H285.044C285.044 238.241 285.085 238.385 285.166 238.508C285.25 238.629 285.363 238.724 285.507 238.792C285.651 238.86 285.815 238.894 285.999 238.894C286.201 238.894 286.374 238.851 286.516 238.766C286.658 238.681 286.766 238.556 286.84 238.391C286.915 238.224 286.953 238.021 286.953 237.78V233.621ZM291.729 237.655V235.076H292.399V239.439H291.729V238.701H291.683C291.581 238.922 291.422 239.111 291.206 239.266C290.99 239.42 290.717 239.496 290.388 239.496C290.115 239.496 289.873 239.437 289.661 239.317C289.449 239.196 289.282 239.014 289.161 238.772C289.039 238.528 288.979 238.22 288.979 237.849V235.076H289.649V237.803C289.649 238.121 289.738 238.375 289.916 238.564C290.096 238.754 290.325 238.849 290.604 238.849C290.77 238.849 290.94 238.806 291.112 238.721C291.287 238.635 291.432 238.505 291.55 238.329C291.669 238.153 291.729 237.928 291.729 237.655ZM294.298 236.814V239.439H293.627V235.076H294.275V235.758H294.332C294.434 235.536 294.589 235.358 294.798 235.224C295.006 235.087 295.275 235.019 295.605 235.019C295.9 235.019 296.159 235.08 296.38 235.201C296.602 235.32 296.774 235.502 296.897 235.746C297.02 235.989 297.082 236.296 297.082 236.667V239.439H296.411V236.712C296.411 236.369 296.322 236.102 296.144 235.911C295.966 235.718 295.722 235.621 295.411 235.621C295.197 235.621 295.006 235.668 294.837 235.76C294.671 235.853 294.539 235.989 294.443 236.167C294.346 236.345 294.298 236.561 294.298 236.814Z" fill="#5A6B74"/>
<path d="M335.341 233.621H336.045V237.78C336.045 238.152 335.977 238.467 335.841 238.726C335.704 238.986 335.512 239.183 335.264 239.317C335.016 239.452 334.723 239.519 334.386 239.519C334.068 239.519 333.785 239.461 333.537 239.346C333.288 239.228 333.093 239.062 332.951 238.846C332.809 238.63 332.738 238.373 332.738 238.076H333.431C333.431 238.241 333.472 238.385 333.554 238.508C333.637 238.629 333.751 238.724 333.894 238.792C334.038 238.86 334.202 238.894 334.386 238.894C334.589 238.894 334.761 238.851 334.903 238.766C335.045 238.681 335.153 238.556 335.227 238.391C335.303 238.224 335.341 238.021 335.341 237.78V233.621ZM340.116 237.655V235.076H340.787V239.439H340.116V238.701H340.071C339.968 238.922 339.809 239.111 339.593 239.266C339.377 239.42 339.105 239.496 338.775 239.496C338.502 239.496 338.26 239.437 338.048 239.317C337.836 239.196 337.669 239.014 337.548 238.772C337.427 238.528 337.366 238.22 337.366 237.849V235.076H338.037V237.803C338.037 238.121 338.126 238.375 338.304 238.564C338.484 238.754 338.713 238.849 338.991 238.849C339.158 238.849 339.327 238.806 339.5 238.721C339.674 238.635 339.82 238.505 339.937 238.329C340.056 238.153 340.116 237.928 340.116 237.655ZM342.685 233.621V239.439H342.015V233.621H342.685Z" fill="#5A6B74"/>
<path d="M381.146 239.439H380.407L382.543 233.621H383.271L385.407 239.439H384.668L382.93 234.542H382.884L381.146 239.439ZM381.418 237.167H384.396V237.792H381.418V237.167ZM388.972 237.655V235.076H389.643V239.439H388.972V238.701H388.927C388.825 238.922 388.665 239.111 388.45 239.266C388.234 239.42 387.961 239.496 387.631 239.496C387.359 239.496 387.116 239.437 386.904 239.317C386.692 239.196 386.525 239.014 386.404 238.772C386.283 238.528 386.222 238.22 386.222 237.849V235.076H386.893V237.803C386.893 238.121 386.982 238.375 387.16 238.564C387.34 238.754 387.569 238.849 387.847 238.849C388.014 238.849 388.183 238.806 388.356 238.721C388.53 238.635 388.676 238.505 388.793 238.329C388.913 238.153 388.972 237.928 388.972 237.655ZM392.632 241.167C392.308 241.167 392.03 241.125 391.797 241.042C391.564 240.96 391.37 240.852 391.214 240.718C391.061 240.585 390.939 240.443 390.848 240.292L391.382 239.917C391.443 239.996 391.519 240.087 391.612 240.189C391.705 240.294 391.832 240.384 391.993 240.459C392.156 240.537 392.369 240.576 392.632 240.576C392.984 240.576 393.275 240.491 393.504 240.32C393.733 240.15 393.848 239.883 393.848 239.519V238.633H393.791C393.742 238.712 393.672 238.811 393.581 238.928C393.492 239.044 393.363 239.147 393.195 239.238C393.028 239.327 392.802 239.371 392.518 239.371C392.166 239.371 391.85 239.288 391.57 239.121C391.291 238.955 391.07 238.712 390.908 238.394C390.747 238.076 390.666 237.689 390.666 237.235C390.666 236.788 390.745 236.399 390.902 236.067C391.059 235.734 391.278 235.476 391.558 235.295C391.838 235.111 392.162 235.019 392.53 235.019C392.814 235.019 393.039 235.066 393.206 235.161C393.374 235.254 393.503 235.36 393.592 235.479C393.683 235.597 393.753 235.693 393.802 235.769H393.871V235.076H394.518V239.564C394.518 239.939 394.433 240.244 394.263 240.479C394.094 240.716 393.867 240.889 393.581 240.999C393.297 241.111 392.981 241.167 392.632 241.167ZM392.609 238.769C392.878 238.769 393.106 238.707 393.291 238.584C393.477 238.461 393.618 238.284 393.714 238.053C393.811 237.822 393.859 237.546 393.859 237.224C393.859 236.909 393.812 236.632 393.717 236.391C393.623 236.151 393.482 235.962 393.297 235.826C393.111 235.689 392.882 235.621 392.609 235.621C392.325 235.621 392.088 235.693 391.899 235.837C391.712 235.981 391.57 236.174 391.476 236.417C391.383 236.659 391.337 236.928 391.337 237.224C391.337 237.527 391.384 237.795 391.479 238.028C391.575 238.259 391.717 238.44 391.905 238.573C392.094 238.704 392.329 238.769 392.609 238.769Z" fill="#5A6B74"/>
<path d="M433.927 235.076C433.893 234.788 433.755 234.564 433.512 234.405C433.27 234.246 432.973 234.167 432.62 234.167C432.363 234.167 432.137 234.208 431.944 234.292C431.753 234.375 431.603 234.49 431.495 234.635C431.389 234.781 431.336 234.947 431.336 235.133C431.336 235.288 431.373 235.421 431.447 235.533C431.523 235.643 431.619 235.735 431.737 235.809C431.854 235.881 431.977 235.94 432.106 235.988C432.235 236.033 432.353 236.07 432.461 236.099L433.052 236.258C433.204 236.297 433.372 236.352 433.558 236.422C433.745 236.492 433.924 236.588 434.095 236.709C434.267 236.829 434.409 236.982 434.521 237.17C434.633 237.357 434.688 237.587 434.688 237.86C434.688 238.174 434.606 238.458 434.441 238.712C434.278 238.966 434.04 239.168 433.725 239.317C433.413 239.467 433.033 239.542 432.586 239.542C432.17 239.542 431.809 239.474 431.504 239.34C431.201 239.206 430.962 239.018 430.788 238.778C430.616 238.537 430.518 238.258 430.495 237.939H431.223C431.241 238.159 431.315 238.341 431.444 238.485C431.575 238.627 431.74 238.733 431.938 238.803C432.139 238.871 432.355 238.905 432.586 238.905C432.855 238.905 433.097 238.862 433.311 238.775C433.525 238.686 433.694 238.563 433.819 238.405C433.944 238.246 434.007 238.061 434.007 237.849C434.007 237.655 433.953 237.498 433.845 237.377C433.737 237.256 433.595 237.157 433.419 237.081C433.242 237.006 433.052 236.939 432.848 236.883L432.132 236.678C431.677 236.547 431.317 236.361 431.052 236.118C430.787 235.876 430.654 235.559 430.654 235.167C430.654 234.841 430.742 234.557 430.919 234.314C431.097 234.07 431.335 233.881 431.634 233.746C431.936 233.61 432.272 233.542 432.643 233.542C433.018 233.542 433.351 233.609 433.643 233.743C433.935 233.876 434.166 234.058 434.336 234.289C434.509 234.52 434.599 234.782 434.609 235.076H433.927ZM437.585 239.53C437.165 239.53 436.802 239.438 436.497 239.252C436.194 239.064 435.96 238.803 435.796 238.468C435.633 238.131 435.551 237.739 435.551 237.292C435.551 236.845 435.633 236.451 435.796 236.11C435.96 235.767 436.19 235.5 436.483 235.309C436.779 235.116 437.123 235.019 437.517 235.019C437.745 235.019 437.969 235.057 438.191 235.133C438.412 235.208 438.614 235.331 438.796 235.502C438.978 235.671 439.122 235.894 439.23 236.172C439.338 236.451 439.392 236.794 439.392 237.201V237.485H436.029V236.905H438.71C438.71 236.659 438.661 236.439 438.563 236.246C438.466 236.053 438.328 235.901 438.148 235.789C437.97 235.677 437.76 235.621 437.517 235.621C437.25 235.621 437.019 235.688 436.824 235.82C436.631 235.951 436.482 236.121 436.378 236.331C436.274 236.542 436.222 236.767 436.222 237.008V237.394C436.222 237.724 436.279 238.003 436.392 238.232C436.508 238.459 436.668 238.633 436.872 238.752C437.077 238.869 437.315 238.928 437.585 238.928C437.762 238.928 437.921 238.903 438.063 238.854C438.207 238.803 438.331 238.727 438.435 238.627C438.539 238.525 438.62 238.398 438.676 238.246L439.324 238.428C439.256 238.648 439.141 238.841 438.98 239.008C438.819 239.172 438.621 239.301 438.384 239.394C438.147 239.485 437.881 239.53 437.585 239.53ZM440.412 241.076V235.076H441.06V235.769H441.139C441.189 235.693 441.257 235.597 441.344 235.479C441.433 235.36 441.56 235.254 441.725 235.161C441.891 235.066 442.117 235.019 442.401 235.019C442.768 235.019 443.092 235.111 443.372 235.295C443.653 235.478 443.871 235.739 444.029 236.076C444.186 236.413 444.264 236.811 444.264 237.269C444.264 237.731 444.186 238.132 444.029 238.471C443.871 238.808 443.654 239.069 443.375 239.255C443.097 239.439 442.776 239.53 442.412 239.53C442.132 239.53 441.907 239.484 441.739 239.391C441.57 239.296 441.441 239.189 441.35 239.07C441.259 238.949 441.189 238.849 441.139 238.769H441.083V241.076H440.412ZM441.071 237.258C441.071 237.587 441.12 237.878 441.216 238.13C441.313 238.38 441.454 238.576 441.639 238.718C441.825 238.858 442.052 238.928 442.321 238.928C442.602 238.928 442.835 238.854 443.023 238.706C443.212 238.557 443.354 238.356 443.449 238.104C443.546 237.85 443.594 237.568 443.594 237.258C443.594 236.951 443.547 236.674 443.452 236.428C443.359 236.18 443.218 235.984 443.029 235.84C442.841 235.694 442.605 235.621 442.321 235.621C442.049 235.621 441.819 235.69 441.634 235.829C441.448 235.965 441.308 236.156 441.213 236.403C441.119 236.647 441.071 236.932 441.071 237.258Z" fill="#5A6B74"/>
<path d="M484.522 236.53C484.522 237.144 484.411 237.674 484.189 238.121C483.968 238.568 483.664 238.913 483.278 239.155C482.891 239.398 482.45 239.519 481.954 239.519C481.457 239.519 481.016 239.398 480.63 239.155C480.243 238.913 479.939 238.568 479.718 238.121C479.496 237.674 479.385 237.144 479.385 236.53C479.385 235.917 479.496 235.386 479.718 234.939C479.939 234.492 480.243 234.148 480.63 233.905C481.016 233.663 481.457 233.542 481.954 233.542C482.45 233.542 482.891 233.663 483.278 233.905C483.664 234.148 483.968 234.492 484.189 234.939C484.411 235.386 484.522 235.917 484.522 236.53ZM483.84 236.53C483.84 236.027 483.756 235.601 483.587 235.255C483.421 234.908 483.194 234.646 482.908 234.468C482.624 234.29 482.306 234.201 481.954 234.201C481.601 234.201 481.282 234.29 480.996 234.468C480.712 234.646 480.486 234.908 480.317 235.255C480.151 235.601 480.067 236.027 480.067 236.53C480.067 237.034 480.151 237.459 480.317 237.806C480.486 238.153 480.712 238.415 480.996 238.593C481.282 238.771 481.601 238.86 481.954 238.86C482.306 238.86 482.624 238.771 482.908 238.593C483.194 238.415 483.421 238.153 483.587 237.806C483.756 237.459 483.84 237.034 483.84 236.53ZM487.388 239.53C486.979 239.53 486.627 239.434 486.331 239.241C486.036 239.047 485.809 238.781 485.65 238.442C485.491 238.103 485.411 237.716 485.411 237.28C485.411 236.837 485.492 236.446 485.655 236.107C485.82 235.766 486.049 235.5 486.343 235.309C486.638 235.116 486.983 235.019 487.377 235.019C487.684 235.019 487.96 235.076 488.206 235.189C488.453 235.303 488.654 235.462 488.812 235.667C488.969 235.871 489.066 236.11 489.104 236.383H488.434C488.383 236.184 488.269 236.008 488.093 235.854C487.919 235.699 487.684 235.621 487.388 235.621C487.127 235.621 486.898 235.689 486.701 235.826C486.506 235.96 486.353 236.151 486.243 236.397C486.135 236.641 486.081 236.928 486.081 237.258C486.081 237.595 486.135 237.888 486.241 238.138C486.349 238.388 486.5 238.582 486.695 238.721C486.892 238.859 487.123 238.928 487.388 238.928C487.563 238.928 487.721 238.898 487.863 238.837C488.005 238.777 488.125 238.689 488.224 238.576C488.322 238.462 488.392 238.326 488.434 238.167H489.104C489.066 238.424 488.973 238.656 488.823 238.863C488.675 239.067 488.479 239.23 488.235 239.351C487.992 239.471 487.71 239.53 487.388 239.53ZM491.982 235.076V235.644H489.721V235.076H491.982ZM490.38 234.03H491.05V238.189C491.05 238.379 491.078 238.521 491.133 238.616C491.189 238.708 491.261 238.771 491.349 238.803C491.438 238.833 491.531 238.849 491.63 238.849C491.704 238.849 491.764 238.845 491.812 238.837C491.859 238.828 491.897 238.82 491.925 238.814L492.062 239.417C492.016 239.434 491.953 239.451 491.871 239.468C491.79 239.487 491.687 239.496 491.562 239.496C491.372 239.496 491.187 239.456 491.005 239.374C490.825 239.293 490.675 239.169 490.556 239.002C490.439 238.835 490.38 238.625 490.38 238.371V234.03Z" fill="#5A6B74"/>
<line x1="259.694" y1="132.637" x2="259.694" y2="215.627" stroke="#213642" stroke-width="0.576389" stroke-dasharray="2.54 2.54"/>
<g filter="url(#filter0_dd_3933_202647)">
<rect x="254.447" y="128.918" width="11.1374" height="11.1374" rx="5.5687" fill="#213642"/>
<rect x="255.6" y="130.071" width="8.83185" height="8.83185" rx="4.41592" stroke="#ADB3BD" stroke-width="2.30555"/>
</g>
<rect x="0.428362" y="0.428362" width="512.32" height="257.008" rx="6.42542" stroke="#E6E6E6" stroke-width="0.856723"/>
<defs>
<filter id="filter0_dd_3933_202647" x="251.373" y="127.381" width="17.2856" height="17.2849" filterUnits="userSpaceOnUse" color-interpolation-filters="sRGB">
<feFlood flood-opacity="0" result="BackgroundImageFix"/>
<feColorMatrix in="SourceAlpha" type="matrix" values="0 0 0 0 0 0 0 0 0 0 0 0 0 0 0 0 0 0 127 0" result="hardAlpha"/>
<feOffset dy="1.53704"/>
<feGaussianBlur stdDeviation="1.53704"/>
<feColorMatrix type="matrix" values="0 0 0 0 0.196487 0 0 0 0 0.196487 0 0 0 0 0.279476 0 0 0 0.06 0"/>
<feBlend mode="multiply" in2="BackgroundImageFix" result="effect1_dropShadow_3933_202647"/>
<feColorMatrix in="SourceAlpha" type="matrix" values="0 0 0 0 0 0 0 0 0 0 0 0 0 0 0 0 0 0 127 0" result="hardAlpha"/>
<feOffset dy="1.53704"/>
<feGaussianBlur stdDeviation="0.768518"/>
<feColorMatrix type="matrix" values="0 0 0 0 0.196487 0 0 0 0 0.196487 0 0 0 0 0.279476 0 0 0 0.06 0"/>
<feBlend mode="multiply" in2="effect1_dropShadow_3933_202647" result="effect2_dropShadow_3933_202647"/>
<feBlend mode="normal" in="SourceGraphic" in2="effect2_dropShadow_3933_202647" result="shape"/>
</filter>
<linearGradient id="paint0_linear_3933_202647" x1="267.043" y1="76.5156" x2="267.043" y2="273.814" gradientUnits="userSpaceOnUse">
<stop stop-color="#112339" stop-opacity="0.11"/>
<stop offset="0.998978" stop-color="white" stop-opacity="0"/>
</linearGradient>
</defs>
</svg>
