<svg width="18" height="18" viewBox="0 0 18 18" fill="none" xmlns="http://www.w3.org/2000/svg">
<g clip-path="url(#clip0_3025_183712)">
<path d="M6.75 9L8.25 10.5L11.625 7.125M5.50033 2.86402C6.1032 2.81591 6.67554 2.57884 7.13585 2.18656C8.21004 1.27115 9.78996 1.27115 10.8641 2.18656C11.3245 2.57884 11.8968 2.81591 12.4997 2.86402C13.9065 2.97629 15.0237 4.09346 15.136 5.50033C15.1841 6.1032 15.4212 6.67554 15.8134 7.13585C16.7289 8.21004 16.7289 9.78996 15.8134 10.8641C15.4212 11.3245 15.1841 11.8968 15.136 12.4997C15.0237 13.9065 13.9065 15.0237 12.4997 15.136C11.8968 15.1841 11.3245 15.4212 10.8641 15.8134C9.78996 16.7289 8.21004 16.7289 7.13585 15.8134C6.67554 15.4212 6.1032 15.1841 5.50033 15.136C4.09346 15.0237 2.97629 13.9065 2.86402 12.4997C2.81591 11.8968 2.57884 11.3245 2.18656 10.8641C1.27115 9.78996 1.27115 8.21004 2.18656 7.13585C2.57884 6.67554 2.81591 6.1032 2.86402 5.50033C2.97629 4.09346 4.09346 2.97629 5.50033 2.86402Z" stroke="#5A6B74" stroke-width="1.5" stroke-linecap="round" stroke-linejoin="round"/>
</g>
<defs>
<clipPath id="clip0_3025_183712">
<rect width="18" height="18" fill="white"/>
</clipPath>
</defs>
</svg>
