<svg width="66" height="98" viewBox="0 0 66 98" fill="none" xmlns="http://www.w3.org/2000/svg">
<rect x="25.4799" y="50.3331" width="30.4355" height="30.4355" rx="5.40592" transform="rotate(25.5921 25.4799 50.3331)" fill="#5A6B74"/>
<g clip-path="url(#clip0_4441_3546)">
<path d="M34.1968 65.9418L32.427 65.0941C31.4977 64.649 31.0331 64.4265 30.5916 64.4374C30.2032 64.4469 29.8278 64.5792 29.5192 64.8152C29.1683 65.0835 28.9458 65.5481 28.5007 66.4774L26.5405 70.5701C26.0954 71.4994 25.8729 71.964 25.8837 72.4056C25.8933 72.794 26.0255 73.1694 26.2616 73.478C26.5299 73.8288 26.9945 74.0513 27.9238 74.4964L32.0165 76.4566C32.9458 76.9017 33.4104 77.1242 33.852 77.1134C34.2403 77.1038 34.6157 76.9716 34.9244 76.7356C35.2752 76.4673 35.4977 76.0026 35.9428 75.0734L36.7905 73.3035M31.8593 73.6616L28.5409 72.0722M34.0251 71.979L29.6005 69.8599M39.2738 68.2909C39.6114 69.2492 39.1082 70.2998 38.1499 70.6374C37.1916 70.975 36.141 70.4718 35.8034 69.5135C35.4658 68.5552 35.9689 67.5046 36.9272 67.167C37.8856 66.8294 38.9361 67.3326 39.2738 68.2909Z" stroke="#FFCC00" stroke-width="1.22648" stroke-linecap="round" stroke-linejoin="round"/>
</g>
<rect x="25.4799" y="50.3331" width="30.4355" height="30.4355" rx="5.40592" transform="rotate(25.5921 25.4799 50.3331)" stroke="#E6E6E6"/>
<rect x="5.53654" y="80.7464" width="17.154" height="17.154" rx="2.49039" transform="rotate(-15 5.53654 80.7464)" fill="#858D9D"/>
<g clip-path="url(#clip1_4441_3546)">
<path d="M17.2615 82.5458L19.1252 83.6217M13.3515 91.4701L13.3597 89.6247C13.3602 89.5043 13.3605 89.4441 13.37 89.3855C13.3784 89.3335 13.3922 89.2824 13.4111 89.2333C13.4325 89.1779 13.4626 89.1257 13.5228 89.0215L16.3024 84.207C16.3556 84.1148 16.3823 84.0687 16.4206 84.0438C16.4543 84.0219 16.494 84.0113 16.5341 84.0134C16.5797 84.0158 16.6259 84.0424 16.7181 84.0957L18.0546 84.8673C18.1469 84.9206 18.193 84.9472 18.2179 84.9855C18.2398 85.0192 18.2504 85.0589 18.2483 85.099C18.2459 85.1446 18.2193 85.1908 18.166 85.283L15.3864 90.0974C15.3262 90.2017 15.2961 90.2538 15.2588 90.3C15.2257 90.341 15.1884 90.3785 15.1475 90.4118C15.1015 90.4493 15.0495 90.4796 14.9455 90.5403L13.3515 91.4701Z" stroke="#FFCC00" stroke-width="0.760825" stroke-linecap="round" stroke-linejoin="round"/>
</g>
<rect x="5.53654" y="80.7464" width="17.154" height="17.154" rx="2.49039" transform="rotate(-15 5.53654 80.7464)" stroke="#E6E6E6" stroke-width="1.10581"/>
<rect x="0.67717" y="14.1292" width="51.9732" height="51.9732" rx="8.2936" transform="rotate(-15 0.67717 14.1292)" fill="#213642"/>
<g clip-path="url(#clip2_4441_3546)">
<path d="M38.3411 28.6522L32.9237 25.5245M25.0763 45.3719L28.5837 44.0016C29.0122 43.8342 29.2264 43.7505 29.4149 43.6284C29.5822 43.52 29.734 43.3896 29.8663 43.2405C30.0154 43.0726 30.1304 42.8734 30.3605 42.4749L40.6869 24.5892C41.5505 23.0932 41.038 21.1803 39.542 20.3166C38.0461 19.4529 36.1332 19.9655 35.2695 21.4614L24.9431 39.3472C24.7131 39.7456 24.5981 39.9449 24.5272 40.158C24.4643 40.3471 24.4272 40.5438 24.417 40.7428C24.4055 40.9671 24.4401 41.1945 24.5094 41.6493L25.0763 45.3719Z" stroke="#FFCC00" stroke-width="2.21163" stroke-linecap="round" stroke-linejoin="round"/>
</g>
<rect x="0.67717" y="14.1292" width="51.9732" height="51.9732" rx="8.2936" transform="rotate(-15 0.67717 14.1292)" stroke="#E6E6E6" stroke-width="1.10581"/>
<defs>
<clipPath id="clip0_4441_3546">
<rect width="14.7178" height="14.7178" fill="white" transform="translate(29.1726 60.8164) rotate(25.5921)"/>
</clipPath>
<clipPath id="clip1_4441_3546">
<rect width="9.1299" height="9.1299" fill="white" transform="translate(10.4504 83.582) rotate(-15)"/>
</clipPath>
<clipPath id="clip2_4441_3546">
<rect width="26.5395" height="26.5395" fill="white" transform="translate(16.2524 23.1211) rotate(-15)"/>
</clipPath>
</defs>
</svg>
