<svg width="31" height="48" viewBox="0 0 31 48" fill="none" xmlns="http://www.w3.org/2000/svg">
<path d="M9.30255 38.6733H17.1318V47.0892H9.30255V38.6733ZM27.3753 2.70244C25.3341 0.901942 21.533 0 15.9688 0C9.67723 0 5.44895 0.871426 3.28395 2.61597C1.11895 4.35713 0.0356036 7.74789 0.0356036 12.7883L0 14.4972H7.75976L7.72585 12.7187C7.72585 10.3045 8.23955 8.68883 9.26356 7.88013C10.2876 7.07143 12.339 6.66454 15.4212 6.66454C18.7034 6.66454 20.8193 7.05109 21.7619 7.81062C22.7096 8.57524 23.1809 10.2808 23.1809 12.9256C23.1809 16.118 21.9179 18.2372 19.3884 19.2867L16.3418 20.5853C13.1511 21.9094 11.181 23.1928 10.4266 24.4338C9.67723 25.6748 9.29916 28.2349 9.29916 32.1122H17.2335V31.017C17.2335 28.6265 18.9069 26.7226 22.2604 25.312C25.702 23.8523 27.928 22.3519 28.9317 20.8176C29.9353 19.2782 30.4372 16.5825 30.4372 12.7289C30.4355 7.84114 29.4149 4.50124 27.3753 2.70244Z" fill="#FFCC00"/>
</svg>
