<svg width="86" height="132" viewBox="0 0 86 132" fill="none" xmlns="http://www.w3.org/2000/svg">
<path d="M40.1646 123.773C40.1646 123.116 40.2496 109.571 40.3214 98.3388C41.8441 99.2853 43.8877 100.03 46.5425 100.03C51.4561 100.03 53.9913 96.8159 54.8071 94.0821C56.2395 95.016 58.1662 95.6756 60.6801 95.6756C66.3883 95.6756 70.0795 91.5875 70.0795 85.2642C70.0795 84.9671 70.1008 84.5921 70.138 84.1616C71.3657 85.5436 72.9894 86.4951 75.1313 86.4951C81.0548 86.4951 85.033 82.6336 85.033 76.8842L85.033 42.4884C85.033 42.292 85.009 42.0957 84.9612 41.9043C84.8469 41.4487 82.2081 31.1128 77.7888 25.371L77.7888 15.4278C77.7888 7.22404 70.7385 0.55078 62.0699 0.55078L44.8577 0.550779C36.1917 0.550778 29.1415 7.219 29.1415 15.4152L29.1415 23.6945C25.4742 26.7882 12.3252 38.4204 8.11045 49.4309C5.48755 56.2854 4.25183 61.909 3.26326 66.425C2.48463 69.9642 1.81495 73.0202 0.709453 75.6231C0.233769 76.7432 -7.63324e-05 77.8458 -7.63935e-05 78.9056C-7.65104e-05 80.937 0.863591 82.7972 2.54576 84.2547C5.30684 86.6487 9.96269 87.5498 12.7132 86.2207C15.0544 85.088 18.1556 81.3977 20.356 77.516L21.698 123.418C21.7059 123.647 21.7458 123.876 21.8176 124.095C22.7131 126.824 25.6151 131.448 30.8157 131.448C36.864 131.448 40.1646 126.379 40.1646 123.773ZM27.0022 122.87L25.2111 61.6623C25.1819 60.7108 24.5893 59.8524 23.6751 59.4497C22.761 59.0469 21.6874 59.1677 20.9007 59.7618C19.1601 61.0733 18.8519 63.2457 18.4639 65.9945C18.2592 67.4344 18.0281 69.0656 17.5683 70.7874C16.4416 75.0164 12.0887 80.8665 10.3161 81.7249C9.7129 81.954 7.34776 81.6922 6.02435 80.4361C5.48223 79.925 4.95074 79.1271 5.63902 77.4984C6.91991 74.4802 7.63742 71.2204 8.46389 67.4445C9.47106 62.858 10.6111 57.6599 13.1065 51.1427C17.4328 39.8276 33.3589 26.8763 33.521 26.7479C34.1136 26.2696 34.4564 25.5698 34.4564 24.8323L34.4564 15.4152C34.4564 9.99303 39.1229 5.5853 44.8577 5.5853L62.0699 5.5853C67.8074 5.5853 72.4739 10.0006 72.4739 15.4278L72.4739 26.2268C72.4739 26.8083 72.6865 27.3697 73.0744 27.8203C76.7151 32.0417 79.2663 41.0988 79.7207 42.798L79.7207 76.8842C79.7207 78.971 78.9235 81.4606 75.1313 81.4606C73.7122 81.4606 72.1124 77.1989 71.7351 73.6722C71.5996 72.4261 70.5233 71.4645 69.2025 71.4117C67.8818 71.3588 66.7205 72.2323 66.4786 73.4632C66.3059 74.3518 64.7672 82.2208 64.7672 85.2692C64.7672 88.8362 63.3907 90.6461 60.6828 90.6461C57.8499 90.6461 56.9065 89.2163 56.6301 88.5819L56.7922 82.0446C56.8002 80.7457 55.7665 79.5953 54.3687 79.477C52.9762 79.3612 51.7218 80.2875 51.5092 81.599L49.8191 92.0129C49.7792 92.5114 49.4417 95.0009 46.5451 95.0009C43.521 95.0009 42.054 93.2867 41.5837 92.5869L40.4038 83.054C40.239 81.7325 39.0192 80.7583 37.6161 80.8338C36.2156 80.9068 35.1154 82.0018 35.1075 83.3334C35.1075 83.3334 34.8656 122.663 34.8683 123.597C34.863 123.625 33.8983 126.416 30.821 126.416C28.6685 126.414 27.3663 123.738 27.0022 122.87Z" fill="#FFCC00"/>
</svg>
