<svg width="50" height="34" viewBox="0 0 50 34" fill="none" xmlns="http://www.w3.org/2000/svg">
<g id="Logo">
<rect id="Rectangle 5618" x="19.0586" y="26.875" width="6" height="6" rx="3" transform="rotate(90 19.0586 26.875)" fill="#FFCC00"/>
<g id="here">
<path d="M4.21997 8.31545C5.13454 7.20058 6.25788 6.64315 7.58998 6.64315C9.06125 6.64315 10.1796 7.14726 10.9451 8.15549C11.7105 9.16372 12.0982 10.6664 12.1082 12.6634V22.6681H7.8733V12.7071C7.8733 11.7861 7.72418 11.122 7.42595 10.7148C7.13766 10.298 6.66546 10.0895 6.00936 10.0895C5.2439 10.0895 4.64743 10.4337 4.21997 11.122V22.6681H0V0.332031H4.21997V8.31545Z" fill="white"/>
<path d="M21.0408 22.959C18.8736 22.959 17.1837 22.3288 15.9709 21.0686C14.7581 19.8083 14.1517 18.0051 14.1517 15.659V14.4084C14.1517 11.9266 14.7084 10.012 15.8218 8.66445C16.9351 7.31692 18.5307 6.64315 20.6084 6.64315C22.6363 6.64315 24.1623 7.27814 25.1862 8.54812C26.2101 9.8084 26.732 11.6794 26.7519 14.1612V16.1825H18.3567C18.4164 17.3459 18.6798 18.199 19.147 18.7419C19.6143 19.2751 20.335 19.5417 21.3092 19.5417C22.7208 19.5417 23.8988 19.0715 24.8432 18.1311L26.4984 20.6178C25.9815 21.3158 25.2309 21.8829 24.2468 22.3191C23.2626 22.7457 22.194 22.959 21.0408 22.959ZM18.3865 13.3033H22.6065V12.9252C22.5866 11.9848 22.4276 11.2723 22.1293 10.7875C21.8311 10.3028 21.3142 10.0605 20.5785 10.0605C19.8429 10.0605 19.3061 10.3174 18.9681 10.8312C18.64 11.345 18.4462 12.169 18.3865 13.3033Z" fill="white"/>
<path d="M36.4898 10.9039L35.0881 10.7875C33.9349 10.7875 33.1545 11.282 32.747 12.2708V22.6681H28.5121V6.93398H32.4935L32.6128 8.63537C33.2788 7.30722 34.1983 6.64315 35.3714 6.64315C35.8486 6.64315 36.2363 6.70616 36.5345 6.83219L36.4898 10.9039Z" fill="white"/>
<path d="M44.2742 22.959C42.107 22.959 40.4171 22.3288 39.2043 21.0686C37.9915 19.8083 37.385 18.0051 37.385 15.659V14.4084C37.385 11.9266 37.9417 10.012 39.0551 8.66445C40.1685 7.31692 41.7641 6.64315 43.8418 6.64315C45.8697 6.64315 47.3957 7.27814 48.4196 8.54812C49.4435 9.8084 49.9654 11.6794 49.9853 14.1612V16.1825H41.5901C41.6498 17.3459 41.9132 18.199 42.3804 18.7419C42.8476 19.2751 43.5684 19.5417 44.5426 19.5417C45.9542 19.5417 47.1322 19.0715 48.0766 18.1311L49.7318 20.6178C49.2149 21.3158 48.4643 21.8829 47.4802 22.3191C46.496 22.7457 45.4273 22.959 44.2742 22.959ZM41.6199 13.3033H45.8399V12.9252C45.82 11.9848 45.661 11.2723 45.3627 10.7875C45.0645 10.3028 44.5476 10.0605 43.8119 10.0605C43.0763 10.0605 42.5395 10.3174 42.2015 10.8312C41.8734 11.345 41.6796 12.169 41.6199 13.3033Z" fill="white"/>
</g>
<g id="news">
<path d="M24.2638 26.3899L24.2986 27.1623C24.7766 26.5593 25.3869 26.2578 26.1294 26.2578C27.4613 26.2578 28.1365 27.1007 28.1551 28.7863V33.5331H26.9299V28.8392C26.9299 28.2802 26.8302 27.8841 26.6306 27.6508C26.4357 27.4131 26.141 27.2943 25.7466 27.2943C25.4403 27.2943 25.1641 27.3911 24.9182 27.5848C24.6769 27.7785 24.4819 28.0315 24.3334 28.344V33.5331H23.1013V26.3899H24.2638Z" fill="white"/>
<path d="M32.4156 33.6652C31.4782 33.6652 30.7589 33.4011 30.2577 32.8729C29.7565 32.3404 29.5012 31.5614 29.4919 30.5359V29.671C29.4919 28.6059 29.7356 27.7719 30.2228 27.1689C30.7148 26.5615 31.3993 26.2578 32.2764 26.2578C33.1581 26.2578 33.8171 26.5241 34.2534 27.0566C34.6896 27.5892 34.9123 28.4188 34.9216 29.5456V30.3114H30.7171V30.4764C30.7171 31.2423 30.8679 31.799 31.1696 32.1467C31.4759 32.4944 31.9144 32.6683 32.4852 32.6683C32.8472 32.6683 33.1651 32.6045 33.4389 32.4768C33.7173 32.3448 33.9772 32.1379 34.2185 31.8562L34.859 32.5957C34.3253 33.3087 33.5108 33.6652 32.4156 33.6652ZM32.2764 27.2613C31.7659 27.2613 31.3877 27.4286 31.1417 27.763C30.8958 28.0931 30.7565 28.6081 30.7241 29.3079H33.6895V29.1495C33.657 28.4717 33.5271 27.9875 33.2997 27.697C33.0769 27.4065 32.7358 27.2613 32.2764 27.2613Z" fill="white"/>
<path d="M41.7369 31.4799L42.8785 26.3899H44.0967L42.252 33.5331H41.2705L39.8017 28.4232L38.3677 33.5331H37.3792L35.5484 26.3899H36.7596L37.9291 31.3545L39.3283 26.3899H40.3029L41.7369 31.4799Z" fill="white"/>
<path d="M48.7679 31.7044C48.7679 31.4535 48.6681 31.2379 48.4686 31.0574C48.269 30.877 47.8838 30.6657 47.313 30.4236C46.6494 30.1639 46.1807 29.9417 45.9069 29.7568C45.6377 29.572 45.4358 29.3629 45.3012 29.1296C45.1667 28.892 45.0994 28.6103 45.0994 28.2846C45.0994 27.7036 45.3221 27.2217 45.7676 26.8388C46.2178 26.4515 46.7909 26.2578 47.487 26.2578C48.2203 26.2578 48.8097 26.4603 49.2552 26.8652C49.7007 27.2701 49.9234 27.7895 49.9234 28.4232H48.6983C48.6983 28.1019 48.5846 27.8291 48.3572 27.6046C48.1298 27.3757 47.8397 27.2613 47.487 27.2613C47.1251 27.2613 46.8397 27.3515 46.6308 27.532C46.4266 27.708 46.3245 27.9457 46.3245 28.245C46.3245 28.4827 46.3988 28.6741 46.5473 28.8194C46.7004 28.9646 47.0647 29.1561 47.6402 29.3937C48.5544 29.7326 49.1763 30.0649 49.5058 30.3906C49.8353 30.7119 50 31.1212 50 31.6186C50 32.2392 49.7749 32.7365 49.3248 33.1106C48.8746 33.4803 48.2713 33.6652 47.5149 33.6652C46.7306 33.6652 46.0948 33.4517 45.6075 33.0248C45.1203 32.5979 44.8766 32.0565 44.8766 31.4007H46.1157C46.1296 31.7968 46.2572 32.1071 46.4986 32.3316C46.7399 32.556 47.0787 32.6683 47.5149 32.6683C47.9233 32.6683 48.2342 32.5825 48.4477 32.4108C48.6612 32.2347 48.7679 31.9993 48.7679 31.7044Z" fill="white"/>
</g>
</g>
</svg>
