<svg width="1127" height="981" viewBox="0 0 1127 981" fill="none" xmlns="http://www.w3.org/2000/svg">
<g style="mix-blend-mode:luminosity" opacity="0.22" clip-path="url(#clip0_741_22520)">
<g opacity="0.5">
<path d="M429.408 490.499C429.408 416.437 489.441 356.404 563.503 356.404C637.565 356.404 697.613 416.437 697.613 490.499C697.613 564.561 637.581 624.609 563.503 624.609C489.424 624.609 429.408 564.577 429.408 490.499V490.499Z" stroke="#BFC3FA" strokeWidth="2.64" stroke-miterlimit="10"/>
<path d="M730.608 490.499C730.608 582.781 655.799 657.606 563.501 657.606C471.204 657.606 396.395 582.797 396.395 490.499C396.395 398.202 471.204 323.393 563.501 323.393C655.799 323.393 730.608 398.202 730.608 490.499Z" fill="#D9D9D9" fill-opacity="0.24" stroke="#BFC3FA" strokeWidth="2.37" stroke-miterlimit="10"/>
<path d="M763.605 490.499C763.605 601.016 674.02 690.602 563.503 690.602C452.986 690.602 363.4 601.016 363.4 490.499C363.4 379.982 452.986 290.396 563.503 290.396C674.02 290.396 763.605 379.982 763.605 490.499V490.499Z" stroke="#BFC3FA" strokeWidth="2.1" stroke-miterlimit="10"/>
<path d="M795.433 513.422C808.108 385.311 714.528 271.182 586.416 258.507C458.305 245.833 344.176 339.413 331.502 467.524C318.827 595.636 412.407 709.765 540.519 722.439C668.63 735.113 782.759 641.533 795.433 513.422Z" stroke="#BFC3FA" strokeWidth="1.83" stroke-miterlimit="10"/>
<path d="M563.501 756.61C710.47 756.61 829.612 637.468 829.612 490.499C829.612 343.53 710.47 224.389 563.501 224.389C416.532 224.389 297.391 343.53 297.391 490.499C297.391 637.468 416.532 756.61 563.501 756.61Z" stroke="#BFC3FA" strokeWidth="1.56" stroke-miterlimit="10"/>
<path d="M775.004 702C891.813 585.192 891.813 395.808 775.004 279C658.196 162.192 468.812 162.192 352.004 279C235.196 395.808 235.196 585.192 352.004 702C468.812 818.808 658.196 818.808 775.004 702Z" stroke="#BFC3FA" strokeWidth="1.29" stroke-miterlimit="10"/>
<path d="M798.337 725.332C928.031 595.638 928.031 385.362 798.337 255.668C668.643 125.974 458.368 125.974 328.674 255.668C198.98 385.362 198.98 595.638 328.674 725.332C458.368 855.026 668.643 855.026 798.337 725.332Z" stroke="#BFC3FA" strokeWidth="1.02" stroke-miterlimit="10"/>
<path d="M563.501 855.614C765.148 855.614 928.616 692.146 928.616 490.499C928.616 288.852 765.148 125.385 563.501 125.385C361.854 125.385 198.387 288.852 198.387 490.499C198.387 692.146 361.854 855.614 563.501 855.614Z" stroke="#BFC3FA" strokeWidth="0.75" stroke-miterlimit="10"/>
<path d="M845.012 772.006C1000.48 616.535 1000.48 364.465 845.012 208.994C689.54 53.5218 437.47 53.5218 281.999 208.994C126.527 364.465 126.527 616.535 281.999 772.006C437.47 927.478 689.54 927.478 845.012 772.006Z" stroke="#BFC3FA" strokeWidth="0.48" stroke-miterlimit="10"/>
</g>
</g>
<defs>
<clipPath id="clip0_741_22520">
<rect width="1127" height="981" fill="white"/>
</clipPath>
</defs>
</svg>
