<svg width="18" height="18.73" viewBox="0 0 20 21" fill="none" xmlns="http://www.w3.org/2000/svg">
<path d="M1 9.56383C1 8.98948 1 8.7023 1.07403 8.43783C1.1396 8.20356 1.24737 7.98322 1.39203 7.78764C1.55534 7.56683 1.78202 7.39052 2.23539 7.0379L9.0177 1.76278C9.36902 1.48953 9.54468 1.3529 9.73865 1.30038C9.9098 1.25404 10.0902 1.25404 10.2613 1.30038C10.4553 1.3529 10.631 1.48953 10.9823 1.76278L17.7646 7.03791C18.218 7.39052 18.4447 7.56683 18.608 7.78764C18.7526 7.98322 18.8604 8.20356 18.926 8.43783C19 8.7023 19 8.98948 19 9.56383V16.7988C19 17.9189 19 18.4789 18.782 18.9067C18.5903 19.2831 18.2843 19.589 17.908 19.7808C17.4802 19.9988 16.9201 19.9988 15.8 19.9988H4.2C3.07989 19.9988 2.51984 19.9988 2.09202 19.7808C1.71569 19.589 1.40973 19.2831 1.21799 18.9067C1 18.4789 1 17.9189 1 16.7988V9.56383Z" stroke="#667085" stroke-width="2" stroke-linecap="round" stroke-linejoin="round"/>
</svg>
