<svg width="16" height="16" viewBox="0 0 16 16" fill="none" xmlns="http://www.w3.org/2000/svg">
<g id="grid-01">
<g id="Icon">
<path d="M5.75 2.375H3.375C3.02497 2.375 2.84995 2.375 2.71626 2.44312C2.59865 2.50304 2.50304 2.59865 2.44312 2.71626C2.375 2.84995 2.375 3.02497 2.375 3.375V5.75C2.375 6.10003 2.375 6.27505 2.44312 6.40874C2.50304 6.52635 2.59865 6.62196 2.71626 6.68188C2.84995 6.75 3.02497 6.75 3.375 6.75H5.75C6.10003 6.75 6.27505 6.75 6.40874 6.68188C6.52635 6.62196 6.62196 6.52635 6.68188 6.40874C6.75 6.27505 6.75 6.10003 6.75 5.75V3.375C6.75 3.02497 6.75 2.84995 6.68188 2.71626C6.62196 2.59865 6.52635 2.50304 6.40874 2.44312C6.27505 2.375 6.10003 2.375 5.75 2.375Z" stroke="#213642" stroke-width="1.25" stroke-linecap="round" stroke-linejoin="round"/>
<path d="M12.625 2.375H10.25C9.89997 2.375 9.72495 2.375 9.59126 2.44312C9.47365 2.50304 9.37804 2.59865 9.31812 2.71626C9.25 2.84995 9.25 3.02497 9.25 3.375V5.75C9.25 6.10003 9.25 6.27505 9.31812 6.40874C9.37804 6.52635 9.47365 6.62196 9.59126 6.68188C9.72495 6.75 9.89997 6.75 10.25 6.75H12.625C12.975 6.75 13.15 6.75 13.2837 6.68188C13.4013 6.62196 13.497 6.52635 13.5569 6.40874C13.625 6.27505 13.625 6.10003 13.625 5.75V3.375C13.625 3.02497 13.625 2.84995 13.5569 2.71626C13.497 2.59865 13.4013 2.50304 13.2837 2.44312C13.15 2.375 12.975 2.375 12.625 2.375Z" stroke="#213642" stroke-width="1.25" stroke-linecap="round" stroke-linejoin="round"/>
<path d="M12.625 9.25H10.25C9.89997 9.25 9.72495 9.25 9.59126 9.31812C9.47365 9.37804 9.37804 9.47365 9.31812 9.59126C9.25 9.72495 9.25 9.89997 9.25 10.25V12.625C9.25 12.975 9.25 13.15 9.31812 13.2837C9.37804 13.4013 9.47365 13.497 9.59126 13.5569C9.72495 13.625 9.89997 13.625 10.25 13.625H12.625C12.975 13.625 13.15 13.625 13.2837 13.5569C13.4013 13.497 13.497 13.4013 13.5569 13.2837C13.625 13.15 13.625 12.975 13.625 12.625V10.25C13.625 9.89997 13.625 9.72495 13.5569 9.59126C13.497 9.47365 13.4013 9.37804 13.2837 9.31812C13.15 9.25 12.975 9.25 12.625 9.25Z" stroke="#213642" stroke-width="1.25" stroke-linecap="round" stroke-linejoin="round"/>
<path d="M5.75 9.25H3.375C3.02497 9.25 2.84995 9.25 2.71626 9.31812C2.59865 9.37804 2.50304 9.47365 2.44312 9.59126C2.375 9.72495 2.375 9.89997 2.375 10.25V12.625C2.375 12.975 2.375 13.15 2.44312 13.2837C2.50304 13.4013 2.59865 13.497 2.71626 13.5569C2.84995 13.625 3.02497 13.625 3.375 13.625H5.75C6.10003 13.625 6.27505 13.625 6.40874 13.5569C6.52635 13.497 6.62196 13.4013 6.68188 13.2837C6.75 13.15 6.75 12.975 6.75 12.625V10.25C6.75 9.89997 6.75 9.72495 6.68188 9.59126C6.62196 9.47365 6.52635 9.37804 6.40874 9.31812C6.27505 9.25 6.10003 9.25 5.75 9.25Z" stroke="#213642" stroke-width="1.25" stroke-linecap="round" stroke-linejoin="round"/>
</g>
</g>
</svg>
