<svg width="45" height="45" viewBox="0 0 45 45" fill="none" xmlns="http://www.w3.org/2000/svg">
<g clip-path="url(#clip0_4181_200865)">
<path d="M22.5 45C34.9264 45 45 34.9264 45 22.5C45 10.0736 34.9264 0 22.5 0C10.0736 0 0 10.0736 0 22.5C0 34.9264 10.0736 45 22.5 45Z" fill="#0077B5"/>
<path fill-rule="evenodd" clip-rule="evenodd" d="M17.6012 13.3912C17.6012 14.5584 16.7125 15.5031 15.3227 15.5031C13.9869 15.5031 13.0981 14.5584 13.1256 13.3912C13.0981 12.1672 13.9868 11.25 15.3493 11.25C16.7125 11.25 17.5746 12.1672 17.6012 13.3912ZM13.2374 30.7679V17.1714H17.4629V30.767L13.2374 30.7679Z" fill="white"/>
<path fill-rule="evenodd" clip-rule="evenodd" d="M20.8493 21.5096C20.8493 19.8137 20.7934 18.3679 20.7375 17.1723H24.4079L24.603 19.035H24.6864C25.2425 18.1728 26.6324 16.8672 28.8844 16.8672C31.6642 16.8672 33.7495 18.7023 33.7495 22.7043V30.7687H29.5239V23.2338C29.5239 21.4813 28.9128 20.2864 27.3837 20.2864C26.2155 20.2864 25.521 21.0927 25.2434 21.8706C25.1316 22.1492 25.0766 22.5377 25.0766 22.9278V30.7687H20.851V21.5096H20.8493Z" fill="white"/>
</g>
<defs>
<clipPath id="clip0_4181_200865">
<rect width="45" height="45" fill="white"/>
</clipPath>
</defs>
</svg>
