<svg width="16" height="16" viewBox="0 0 16 16" fill="none" xmlns="http://www.w3.org/2000/svg">
<g id="align-horizontal-centre-02">
<g id="Icon">
<path d="M10.5 6.75C11.0824 6.75 11.3736 6.75 11.6034 6.65485C11.9096 6.52798 12.153 6.28464 12.2798 5.97835C12.375 5.74864 12.375 5.45743 12.375 4.875C12.375 4.29257 12.375 4.00136 12.2798 3.77165C12.153 3.46536 11.9096 3.22202 11.6034 3.09515C11.3736 3 11.0824 3 10.5 3L5.5 3C4.91757 3 4.62636 3 4.39665 3.09515C4.09036 3.22202 3.84702 3.46536 3.72015 3.77165C3.625 4.00136 3.625 4.29257 3.625 4.875C3.625 5.45743 3.625 5.74864 3.72015 5.97835C3.84702 6.28464 4.09036 6.52798 4.39665 6.65485C4.62636 6.75 4.91757 6.75 5.5 6.75L10.5 6.75Z" stroke="#F9FAFB" stroke-width="1.25" stroke-linecap="round" stroke-linejoin="round"/>
<path d="M11.75 13C12.3324 13 12.6236 13 12.8534 12.9048C13.1596 12.778 13.403 12.5346 13.5298 12.2284C13.625 11.9986 13.625 11.7074 13.625 11.125C13.625 10.5426 13.625 10.2514 13.5298 10.0216C13.403 9.71536 13.1596 9.47202 12.8534 9.34515C12.6236 9.25 12.3324 9.25 11.75 9.25H4.25C3.66757 9.25 3.37636 9.25 3.14665 9.34515C2.84036 9.47202 2.59702 9.71536 2.47015 10.0216C2.375 10.2514 2.375 10.5426 2.375 11.125C2.375 11.7074 2.375 11.9986 2.47015 12.2284C2.59702 12.5346 2.84036 12.778 3.14665 12.9048C3.37636 13 3.66757 13 4.25 13L11.75 13Z" stroke="#F9FAFB" stroke-width="1.25" stroke-linecap="round" stroke-linejoin="round"/>
</g>
</g>
</svg>
