<svg width="45" height="45" viewBox="0 0 45 45" fill="none" xmlns="http://www.w3.org/2000/svg">
<circle cx="22.5" cy="22.5" r="22.5" fill="#40B3E0"/>
<g clip-path="url(#clip0_4181_200879)">
<path d="M22 10C14.8202 10 9 15.8202 9 23C9 30.1798 14.8202 36 22 36C29.1798 36 35 30.1798 35 23C35 15.8202 29.1798 10 22 10Z" fill="#40B3E0"/>
<path d="M29 16.9361L26.4648 29.7185C26.4648 29.7185 26.1103 30.605 25.1352 30.1795L19.2846 25.6941L17.1572 24.6659L13.576 23.4602C13.576 23.4602 13.0264 23.2653 12.9732 22.8398C12.9201 22.4143 13.5938 22.1838 13.5938 22.1838L27.8299 16.5992C27.8299 16.5992 29 16.0851 29 16.9361Z" fill="white"/>
<path d="M18.8349 29.5739C18.8349 29.5739 18.6642 29.5579 18.4514 28.8841C18.2387 28.2104 17.1572 24.6647 17.1572 24.6647L25.7556 19.2043C25.7556 19.2043 26.2521 18.9029 26.2343 19.2043C26.2343 19.2043 26.323 19.2574 26.057 19.5056C25.7911 19.7539 19.3024 25.5866 19.3024 25.5866" fill="#D2E5F1"/>
<path d="M21.5277 27.4143L19.2135 29.5241C19.2135 29.5241 19.0327 29.6614 18.8347 29.5754L19.2778 25.6562" fill="#B5CFE4"/>
</g>
<defs>
<clipPath id="clip0_4181_200879">
<rect width="24" height="24" fill="white" transform="translate(10 11)"/>
</clipPath>
</defs>
</svg>
