<svg width="45" height="45" viewBox="0 0 45 45" fill="none" xmlns="http://www.w3.org/2000/svg">
<circle cx="22.5" cy="22.5" r="22.5" fill="#60A9DD"/>
<path fill-rule="evenodd" clip-rule="evenodd" d="M18.661 30.2006C25.4533 30.2006 29.1685 24.6598 29.1685 19.8554C29.1685 19.6977 29.1685 19.5412 29.1577 19.3852C29.8804 18.8713 30.5041 18.2332 31 17.503C30.3268 17.7972 29.6113 17.9901 28.8796 18.0752C29.65 17.6206 30.2269 16.9065 30.5032 16.0638C29.7778 16.4874 28.9849 16.7863 28.1578 16.9467C26.7592 15.4829 24.4201 15.4119 22.9324 16.7889C21.9739 17.6768 21.5662 19.0006 21.8641 20.2632C18.895 20.1162 16.1284 18.7357 14.2528 16.4646C13.2727 18.126 13.774 20.2506 15.3967 21.3175C14.809 21.3007 14.2339 21.1449 13.72 20.8631V20.9092C13.7209 22.6398 14.9602 24.1299 16.6828 24.4728C16.1392 24.619 15.5686 24.6402 15.016 24.5347C15.4993 26.0163 16.8862 27.031 18.4657 27.0603C17.158 28.0722 15.5425 28.6216 13.8793 28.6199C13.5859 28.619 13.2925 28.6021 13 28.5676C14.6893 29.6344 16.654 30.2006 18.661 30.198" fill="white"/>
</svg>
