<svg width="45" height="45" viewBox="0 0 45 45" fill="none" xmlns="http://www.w3.org/2000/svg">
<g clip-path="url(#clip0_4181_200874)">
<path d="M22.5 45C34.9264 45 45 34.9264 45 22.5C45 10.0736 34.9264 0 22.5 0C10.0736 0 0 10.0736 0 22.5C0 34.9264 10.0736 45 22.5 45Z" fill="#0D9F16"/>
<path d="M11.625 32.5L13.167 27.1126C12.2195 25.5321 11.722 23.7396 11.7244 21.9156C11.7134 16.1678 16.5698 11.5 22.5384 11.5C25.4352 11.5 28.1552 12.5795 30.2032 14.5486C31.2127 15.5138 32.0128 16.662 32.5573 17.9266C33.1017 19.1912 33.3796 20.547 33.3749 21.9156C33.3749 27.6524 28.5185 32.3201 22.5493 32.3201C20.7324 32.3201 18.9593 31.8859 17.3734 31.0502L11.625 32.5ZM17.6271 29.1766L17.9576 29.367C19.3447 30.156 20.9266 30.5726 22.5384 30.5737C27.4941 30.5737 31.536 26.6895 31.536 21.9256C31.536 19.6183 30.6002 17.4383 28.9038 15.8086C28.0697 15.0023 27.0778 14.3627 25.9854 13.9266C24.8928 13.4904 23.7213 13.2664 22.5384 13.2675C17.5716 13.2681 13.531 17.1523 13.531 21.9162C13.531 23.546 14.0048 25.1447 14.9078 26.5208L15.1169 26.8489L14.2029 30.0451L17.6271 29.1766Z" fill="white"/>
<path fill-rule="evenodd" clip-rule="evenodd" d="M20.4437 17.8195C20.2477 17.3546 20.03 17.3433 19.8449 17.3433C19.6815 17.332 19.5066 17.332 19.3214 17.332C19.1478 17.332 18.8535 17.3998 18.6033 17.6834C18.3524 17.9663 17.6667 18.6351 17.6667 20.0059C17.6667 21.3775 18.625 22.7031 18.7558 22.8844C18.886 23.0657 20.6071 25.9661 23.3304 27.0885C25.5954 28.0177 26.0531 27.8363 26.5433 27.7792C27.033 27.7228 28.1227 27.1111 28.3513 26.4536C28.569 25.808 28.569 25.2415 28.5038 25.1279C28.4387 25.015 28.2529 24.9465 27.9919 24.7992C27.7193 24.6636 26.4125 23.9835 26.1623 23.8926C25.9114 23.8022 25.7371 23.757 25.5628 24.0287C25.3886 24.3123 24.8765 24.9353 24.7138 25.1166C24.5606 25.2979 24.3978 25.3205 24.1361 25.1844C23.8641 25.0488 23.0036 24.754 21.9796 23.8022C21.1842 23.065 20.6505 22.1478 20.4871 21.8762C20.3352 21.5926 20.4654 21.4451 20.6071 21.309C20.7271 21.1848 20.8797 20.9809 21.0106 20.8222C21.1408 20.6628 21.1842 20.5386 21.2825 20.3572C21.3694 20.1759 21.3259 20.0059 21.2608 19.8704C21.1951 19.7456 20.6837 18.3748 20.4437 17.8195Z" fill="white"/>
</g>
<defs>
<clipPath id="clip0_4181_200874">
<rect width="45" height="45" fill="white"/>
</clipPath>
</defs>
</svg>
